<svg viewBox="0 0 40 40" fill="none" xmlns="http://www.w3.org/2000/svg">
    <path d="M20.0005 7C16.6092 7 13.8395 9.76452 13.8395 13.1545C13.8395 15.1962 14.8479 17.0073 16.3879 18.1291C12.0924 19.6263 8.99968 23.7117 9 28.5077C8.99906 29.4223 9.50799 30.2174 10.1953 30.7767C10.883 31.336 11.7668 31.7376 12.7825 32.0588C14.8133 32.7011 17.4001 33 19.997 33C22.5939 33 25.1827 32.7011 27.214 32.0588C28.2297 31.7376 29.1133 31.3357 29.8012 30.7767C30.4892 30.2173 31 29.422 31 28.5077C31.0003 23.7111 27.9079 19.626 23.6121 18.1291C25.1524 17.0076 26.1605 15.1962 26.1605 13.1545C26.1605 9.76452 23.3918 7 20.0005 7ZM20.0005 8.79229C22.4227 8.79229 24.3658 10.7355 24.3658 13.1545C24.3658 15.5734 22.4227 17.5172 20.0005 17.5172C17.5783 17.5172 15.6342 15.573 15.6342 13.1545C15.6342 10.7355 17.5783 8.79229 20.0005 8.79229ZM19.9654 19.3103C19.9773 19.3103 19.9886 19.3118 20.0005 19.3118C20.0124 19.3118 20.0236 19.3103 20.0355 19.3103C25.1145 19.3291 29.2052 23.4295 29.2052 28.5077C29.2052 28.7913 29.0863 29.0429 28.6687 29.3822C28.2515 29.7216 27.5532 30.0684 26.674 30.3463C24.9159 30.9022 22.452 31.2043 19.9969 31.2043C17.5417 31.2043 15.0798 30.9022 13.3223 30.3463C12.4437 30.0683 11.7454 29.725 11.3285 29.3857C10.9116 29.0464 10.7945 28.7913 10.7948 28.5074C10.7945 23.4297 14.8866 19.3292 19.9653 19.31L19.9654 19.3103Z"
          fill="currentColor"/>
</svg>
