<svg viewBox="0 0 40 40" fill="none" xmlns="http://www.w3.org/2000/svg">
    <path d="M11.3811 19.2931C10.8979 19.1171 10.4036 19.0249 9.95268 19.0249C9.15024 19.0249 8.58703 19.3088 8.40736 19.8044C8.12145 20.5926 8.98053 21.6023 10.3625 22.1035C10.8457 22.2786 11.34 22.3708 11.7909 22.3708C12.5938 22.3708 13.1565 22.087 13.3362 21.5913C13.6217 20.8033 12.763 19.7936 11.3811 19.2932V19.2931ZM12.8172 21.4035C12.7243 21.6604 12.3313 21.8199 11.7909 21.8199C11.4035 21.8199 10.9745 21.7383 10.5503 21.584C9.40421 21.1685 8.77419 20.4123 8.92643 19.9925C9.01932 19.7359 9.41238 19.577 9.95268 19.577C10.3405 19.577 10.7696 19.6579 11.1933 19.8122C12.3394 20.2275 12.9692 20.9839 12.8172 21.4035V21.4035Z"
          fill="currentColor" stroke="currentColor" stroke-width="0.1"/>
    <path d="M35.9973 16.1277C35.9973 14.7088 34.4871 14.7088 33.8414 14.7088C33.0866 14.7088 32.5682 15.1198 32.2581 15.4802C31.8501 14.1044 31.1041 12.1531 29.8625 10.6633C27.7284 8.10219 25.5805 8 20.4989 8C15.417 8 13.2691 8.10195 11.1348 10.6633C9.89354 12.1531 9.14747 14.1044 8.73923 15.4802C8.42862 15.1198 7.91097 14.7088 7.15586 14.7088C6.51087 14.7088 5 14.7088 5 16.1277C5 17.2686 6.16539 17.4557 7.99182 17.4811C7.37178 18.3538 7.17442 19.521 7.16514 19.5792C7.14588 19.6959 6.70886 22.4399 7.15789 24.3993C7.13002 24.6594 7.05209 25.7776 7.57519 26.8014V30.3707C7.57519 30.9742 8.06635 31.4658 8.67034 31.4658H11.5158C12.1195 31.4658 12.6114 30.9742 12.6114 30.3707V28.5721C13.3841 28.5512 13.9199 28.5159 14.5063 28.4763C15.6381 28.4013 16.9213 28.3154 20.4985 28.3154C24.0757 28.3154 25.3589 28.4011 26.4907 28.4763C27.077 28.5159 27.6128 28.551 28.3856 28.5721V30.3707C28.3856 30.9742 28.877 31.4658 29.4807 31.4658H32.3264C32.9302 31.4658 33.4216 30.9742 33.4216 30.3707V26.8014C33.9444 25.7776 33.8667 24.6591 33.8393 24.3993C34.2881 22.4399 33.8507 19.6961 33.8318 19.5799C33.8223 19.5207 33.625 18.3538 33.0049 17.4811C34.8325 17.4557 35.997 17.2686 35.997 16.1277L35.9973 16.1277ZM5.5519 16.1277C5.5519 15.5924 5.82013 15.2605 7.15562 15.2605C7.95987 15.2605 8.41253 15.9202 8.55097 16.1599C8.46578 16.4911 8.40711 16.7569 8.37109 16.932C5.97193 16.9172 5.55192 16.6678 5.55192 16.1277H5.5519ZM12.0597 28.5837V30.3707C12.0597 30.6702 11.8155 30.914 11.516 30.914H8.67056C8.37106 30.914 8.12729 30.67 8.12729 30.3707V27.5721C8.14156 27.5871 8.15946 27.6007 8.17441 27.6156C8.22811 27.6679 8.28293 27.7191 8.34002 27.7676C8.34999 27.7765 8.36177 27.7848 8.37219 27.793C8.80128 28.1453 9.33163 28.3822 9.95916 28.5003C9.97638 28.5039 9.99155 28.5077 10.0092 28.5114C10.1266 28.5322 10.2489 28.5465 10.3733 28.5594C10.407 28.5626 10.4376 28.5678 10.4721 28.5707C10.6322 28.5843 10.7972 28.5916 10.9678 28.5916C11.0717 28.5916 11.1728 28.5909 11.2704 28.5909C11.3663 28.5902 11.4569 28.5902 11.5468 28.5889H11.5482C11.6352 28.5889 11.7183 28.5882 11.8001 28.5866H11.8153C11.8832 28.5859 11.9499 28.5852 12.0144 28.5841C12.0289 28.5843 12.0443 28.5843 12.0597 28.5836L12.0597 28.5837ZM32.8701 30.3707C32.8701 30.6702 32.6261 30.914 32.3268 30.914H29.4812C29.1815 30.914 28.9381 30.67 28.9381 30.3707V28.5837C28.9529 28.5844 28.9687 28.5844 28.9837 28.5844C29.0487 28.5857 29.1142 28.5864 29.1821 28.5869H29.1984C29.28 28.5884 29.3634 28.5891 29.4501 28.5891H29.4522C29.5414 28.5905 29.6327 28.5905 29.7272 28.5912C29.8255 28.5912 29.9259 28.5918 30.0306 28.5918C30.2014 28.5918 30.3661 28.5846 30.5258 28.571C30.56 28.5681 30.5904 28.5628 30.6239 28.5597C30.7487 28.5468 30.8711 28.5325 30.9889 28.5116C31.0061 28.508 31.0213 28.5042 31.0378 28.5005C31.6663 28.3827 32.1964 28.1455 32.6264 27.7933C32.6361 27.7851 32.6475 27.7767 32.6577 27.7688C32.7159 27.7199 32.7707 27.6675 32.8242 27.6145C32.8391 27.6003 32.8563 27.5867 32.8706 27.5724L32.8704 30.3707L32.8701 30.3707ZM33.2913 24.3199L33.2795 24.37L33.2863 24.4209C33.2886 24.4345 33.4367 25.6219 32.8898 26.6239C32.8323 26.7285 32.7698 26.8284 32.7011 26.9213C32.6893 26.937 32.6766 26.9519 32.6646 26.9678C32.6064 27.0421 32.5439 27.113 32.4782 27.1803C32.4526 27.2066 32.4274 27.2333 32.4009 27.2582C32.3337 27.3212 32.2616 27.3797 32.1868 27.4356C32.1651 27.4519 32.1443 27.47 32.1218 27.4864C32.0228 27.5543 31.9188 27.6173 31.8085 27.673C31.7854 27.6844 31.7605 27.6934 31.7367 27.7043C31.6483 27.7464 31.5564 27.7845 31.4605 27.8187C31.417 27.8343 31.3715 27.8473 31.3264 27.8608C31.2442 27.8864 31.1601 27.9089 31.0727 27.9288C31.0233 27.9401 30.973 27.9508 30.9213 27.9605C30.8285 27.9777 30.7319 27.9913 30.6329 28.0027C30.5856 28.0081 30.5398 28.0149 30.4911 28.0192C30.3423 28.0319 30.1894 28.0401 30.0299 28.0401C29.9023 28.0401 29.7802 28.0394 29.6626 28.0394C29.6429 28.0387 29.6239 28.0387 29.6042 28.0387C29.5038 28.0378 29.4064 28.0371 29.3122 28.0364C29.2986 28.0364 29.285 28.0364 29.2709 28.0357C29.1676 28.0351 29.0673 28.0337 28.9707 28.0321H28.9669C28.8629 28.0301 28.7637 28.0289 28.6672 28.0267L28.5863 28.0246C27.7204 28.0049 27.1527 27.9669 26.5272 27.9252C25.387 27.8493 24.0938 27.7632 20.4984 27.7632C16.9021 27.7632 15.6095 27.8493 14.4696 27.9252C13.8441 27.9669 13.2767 28.0047 12.4108 28.0246L12.3297 28.0267C12.2331 28.0289 12.1332 28.0303 12.0288 28.0321H12.0263C11.9298 28.0337 11.8292 28.0351 11.725 28.0357C11.7114 28.0364 11.6983 28.0364 11.6851 28.0364C11.5907 28.0371 11.4926 28.0378 11.3917 28.0387C11.3723 28.0387 11.3537 28.0387 11.3342 28.0394C11.2164 28.0394 11.0945 28.0401 10.967 28.0401C10.8072 28.0401 10.6541 28.0319 10.5057 28.0192C10.4572 28.0149 10.4112 28.0081 10.3639 28.0027C10.2651 27.9913 10.1686 27.9777 10.0748 27.9605C10.0241 27.951 9.97354 27.9401 9.92415 27.9288C9.83602 27.9091 9.75174 27.886 9.66951 27.8608C9.62443 27.8473 9.58025 27.8341 9.5363 27.8187C9.43978 27.785 9.34803 27.746 9.259 27.7038C9.23589 27.6932 9.21165 27.6841 9.18877 27.6733C9.07845 27.6173 8.97378 27.5543 8.87546 27.4859C8.8528 27.471 8.83287 27.4524 8.81157 27.4372C8.73613 27.3808 8.66386 27.3219 8.59589 27.258C8.56984 27.2335 8.54492 27.2077 8.52 27.1814C8.45407 27.1135 8.39018 27.0428 8.33173 26.9667C8.32041 26.9517 8.3084 26.9374 8.29752 26.9225C8.22797 26.8289 8.16499 26.729 8.10722 26.623C7.56033 25.6216 7.70872 24.4349 7.71099 24.4214L7.71779 24.3697L7.70601 24.3203C7.26491 22.4658 7.7051 19.6964 7.71031 19.6688C7.71258 19.6529 7.97107 18.1235 8.78053 17.4178L8.85461 17.3535L8.8716 17.257C8.87817 17.2189 9.56008 13.416 11.5599 11.0171C13.5138 8.67166 15.3829 8.55225 20.4995 8.55225C25.6159 8.55225 27.484 8.67141 29.4391 11.0171C31.4355 13.4133 32.1205 17.2193 32.1269 17.2576L32.1439 17.3534L32.218 17.4177C33.027 18.1234 33.2855 19.6529 33.2882 19.6687C33.2923 19.6963 33.7336 22.4636 33.2916 24.3202L33.2913 24.3199ZM32.6255 16.9317C32.5897 16.7566 32.5312 16.4913 32.4463 16.1603C32.5847 15.9228 33.0423 15.2602 33.8412 15.2602C35.1766 15.2602 35.4453 15.5918 35.4453 16.1274C35.4453 16.6677 35.0255 16.9171 32.6255 16.9316L32.6255 16.9317Z"
          fill="currentColor" stroke="currentColor" stroke-width="0.1"/>
    <path d="M29.616 19.2932C28.2343 19.7936 27.3757 20.8031 27.6611 21.5913C27.8403 22.087 28.4036 22.3708 29.2062 22.3708H29.2069C29.658 22.3708 30.1516 22.2786 30.6353 22.1035C32.0173 21.6024 32.8757 20.5926 32.5904 19.8044C32.4108 19.3087 31.8476 19.0249 31.0453 19.0249C30.5941 19.0251 30.1004 19.1173 29.616 19.2931L29.616 19.2932ZM32.0714 19.9927C32.2236 20.4123 31.594 21.1687 30.4475 21.5842C30.0236 21.7385 29.5945 21.82 29.2071 21.82H29.2064C28.6663 21.82 28.2732 21.6606 28.1804 21.4036C28.0284 20.9841 28.6582 20.2279 29.8043 19.8126C30.2284 19.6583 30.6575 19.5774 31.0456 19.5774C31.5854 19.5769 31.9785 19.736 32.0714 19.9927L32.0714 19.9927Z"
          fill="currentColor" stroke="currentColor" stroke-width="0.1"/>
    <path d="M23.7616 22.4233C23.3267 22.4233 22.8495 22.4276 22.3407 22.4322C21.1835 22.4421 19.814 22.4421 18.6561 22.4322C18.1477 22.4272 17.6704 22.4233 17.2359 22.4233C15.1317 22.4233 14.4316 22.5115 14.4316 23.0316C14.4316 23.8884 17.7676 24.6225 20.4987 24.6225C23.2291 24.6225 26.5651 23.8882 26.5651 23.0316C26.5654 22.5117 25.8651 22.4233 23.7613 22.4233H23.7616ZM20.4989 24.0703C17.6803 24.0703 15.6421 23.4233 15.1006 23.0824C15.4185 23.0112 16.1341 22.9752 17.2356 22.9752C17.6688 22.9752 18.1448 22.9795 18.6513 22.984C19.8115 22.994 21.1846 22.994 22.3454 22.984C22.8524 22.979 23.3275 22.9752 23.7611 22.9752C24.8631 22.9752 25.5785 23.0112 25.8957 23.0824C25.3554 23.4233 23.3166 24.0703 20.4988 24.0703H20.4989Z"
          fill="currentColor" stroke="currentColor" stroke-width="0.1"/>
    <path d="M20.4979 18.3823H20.513C21.3848 18.3823 29.0832 18.3284 31.0806 16.4686L31.1982 16.3588L31.1606 16.2022C31.1343 16.0905 30.4893 13.4392 29.097 11.3971C27.6563 9.284 26.4769 9.11523 20.4989 9.11523C14.521 9.11523 13.3416 9.28402 11.9003 11.3971C10.5086 13.4392 9.86367 16.0905 9.8367 16.2022L9.79932 16.3588L9.91689 16.4686C11.9153 18.3284 19.6134 18.3823 20.4984 18.3823H20.4979ZM12.3574 11.708C13.6628 9.79297 14.5971 9.66706 20.4996 9.66706C26.4014 9.66706 27.3363 9.79302 28.6412 11.708C29.7844 13.3849 30.4203 15.5635 30.5827 16.1686C28.9115 17.4796 23.31 17.8299 20.5133 17.8299V18.106L20.4848 17.8299C17.6887 17.8299 12.0874 17.4794 10.416 16.1686C10.578 15.5639 11.2125 13.3867 12.3575 11.708H12.3574Z"
          fill="currentColor" stroke="currentColor" stroke-width="0.1"/>
</svg>
