<svg viewBox="0 0 40 40" fill="none" xmlns="http://www.w3.org/2000/svg">
    <path d="M3.99419 6.99219C3.99419 6.72697 4.09954 6.47262 4.28708 6.28508C4.47462 6.09754 4.72897 5.99219 4.99419 5.99219H5.87019C7.32419 5.99219 8.16019 6.93819 8.64419 7.88219C8.97419 8.52819 9.21219 9.31619 9.41019 10.0002H30.0002C30.3092 10.0003 30.614 10.072 30.8907 10.2097C31.1674 10.3474 31.4084 10.5473 31.5948 10.7938C31.7812 11.0403 31.9079 11.3266 31.9651 11.6303C32.0222 11.934 32.0082 12.2468 31.9242 12.5442L28.9322 23.0942C28.6942 23.9312 28.1897 24.6678 27.4953 25.1922C26.8009 25.7166 25.9544 26.0003 25.0842 26.0002H14.9262C14.0487 26.0005 13.1955 25.7123 12.498 25.1799C11.8005 24.6476 11.2974 23.9006 11.0662 23.0542L9.78219 18.3442C9.77483 18.3231 9.76816 18.3017 9.76219 18.2802L7.70019 11.2862L7.50019 10.6122C7.30019 9.92019 7.12419 9.30819 6.86019 8.79419C6.54219 8.17419 6.25019 7.99419 5.86819 7.99419H4.99219C4.72697 7.99419 4.47262 7.88883 4.28508 7.70129C4.09754 7.51376 3.99219 7.2594 3.99219 6.99419L3.99419 6.99219ZM11.6902 17.7402L12.9962 22.5322C13.112 22.9552 13.3636 23.3285 13.7124 23.5944C14.0611 23.8604 14.4876 24.0044 14.9262 24.0042H25.0862C25.5211 24.0037 25.944 23.8616 26.2908 23.5992C26.6376 23.3368 26.8895 22.9686 27.0082 22.5502L30.0002 12.0002H10.0002L11.6902 17.7382V17.7402ZM18.0002 30.9982C18.0002 31.7938 17.6841 32.5569 17.1215 33.1195C16.5589 33.6821 15.7958 33.9982 15.0002 33.9982C14.2045 33.9982 13.4415 33.6821 12.8789 33.1195C12.3163 32.5569 12.0002 31.7938 12.0002 30.9982C12.0002 30.2025 12.3163 29.4395 12.8789 28.8769C13.4415 28.3143 14.2045 27.9982 15.0002 27.9982C15.7958 27.9982 16.5589 28.3143 17.1215 28.8769C17.6841 29.4395 18.0002 30.2025 18.0002 30.9982ZM16.0002 30.9982C16.0002 30.733 15.8948 30.4786 15.7073 30.2911C15.5198 30.1035 15.2654 29.9982 15.0002 29.9982C14.735 29.9982 14.4806 30.1035 14.2931 30.2911C14.1055 30.4786 14.0002 30.733 14.0002 30.9982C14.0002 31.2634 14.1055 31.5178 14.2931 31.7053C14.4806 31.8928 14.735 31.9982 15.0002 31.9982C15.2654 31.9982 15.5198 31.8928 15.7073 31.7053C15.8948 31.5178 16.0002 31.2634 16.0002 30.9982ZM28.0002 30.9982C28.0002 31.7938 27.6841 32.5569 27.1215 33.1195C26.5589 33.6821 25.7958 33.9982 25.0002 33.9982C24.2045 33.9982 23.4415 33.6821 22.8789 33.1195C22.3163 32.5569 22.0002 31.7938 22.0002 30.9982C22.0002 30.2025 22.3163 29.4395 22.8789 28.8769C23.4415 28.3143 24.2045 27.9982 25.0002 27.9982C25.7958 27.9982 26.5589 28.3143 27.1215 28.8769C27.6841 29.4395 28.0002 30.2025 28.0002 30.9982ZM26.0002 30.9982C26.0002 30.733 25.8948 30.4786 25.7073 30.2911C25.5198 30.1035 25.2654 29.9982 25.0002 29.9982C24.735 29.9982 24.4806 30.1035 24.2931 30.2911C24.1055 30.4786 24.0002 30.733 24.0002 30.9982C24.0002 31.2634 24.1055 31.5178 24.2931 31.7053C24.4806 31.8928 24.735 31.9982 25.0002 31.9982C25.2654 31.9982 25.5198 31.8928 25.7073 31.7053C25.8948 31.5178 26.0002 31.2634 26.0002 30.9982Z"
          fill="currentColor"/>
</svg>
