<svg viewBox="0 0 168 169" fill="none" xmlns="http://www.w3.org/2000/svg">
    <circle cx="83.8372" cy="84.8372" r="63.3372" fill="currentColor" fill-opacity="0.24" stroke="currentColor"/>
    <g id="inside" fill="currentColor">
        <path d="M70.9777 168.843L69.4826 161.34L65.3073 167.749L64.4909 167.592L69.3126 160.299L70.0284 160.437L71.7941 169L70.9777 168.843Z"
        />
        <path d="M58.4788 157.256C59.0785 157.473 59.5466 157.763 59.883 158.127C60.2194 158.491 60.4443 158.894 60.5577 159.339C60.6684 159.79 60.6981 160.264 60.6466 160.762C60.5881 161.257 60.4708 161.746 60.2948 162.231L58.905 166.058L58.1661 165.791L59.5559 161.964C59.6983 161.572 59.7988 161.173 59.8574 160.766C59.9089 160.358 59.8962 159.97 59.8193 159.604C59.7424 159.237 59.5792 158.908 59.3298 158.616C59.0778 158.331 58.7162 158.104 58.245 157.933C57.7595 157.758 57.3274 157.702 56.9485 157.767C56.56 157.836 56.2221 157.987 55.9349 158.222C55.6406 158.454 55.3869 158.741 55.1738 159.084C54.9581 159.433 54.7804 159.8 54.6406 160.185L53.2508 164.012L52.5012 163.741L53.891 159.914C54.0747 159.408 54.3078 158.944 54.5903 158.522C54.8727 158.1 55.2059 157.761 55.5897 157.505C55.9664 157.246 56.3957 157.087 56.8777 157.027C57.3597 156.968 57.8934 157.044 58.4788 157.256Z"
        />
        <path d="M44.7562 151.693L45.0948 151.074L49.8626 153.675L45.9841 160.759L41.3063 158.207L41.645 157.589L45.6231 159.759L47.0216 157.205L43.5532 155.312L43.8755 154.724L47.3439 156.616L48.8243 153.912L44.7562 151.693Z"
        />
        <path d="M35.2549 144.024L30.024 150.181L29.4159 149.667L34.6467 143.509L35.2549 144.024Z"/>
        <path d="M25.1566 143.758L30.0315 139.29L30.5708 139.876L24.6135 145.336L24.1667 144.851L25.5439 136.395L20.5851 140.94L20.0459 140.354L25.9948 134.901L26.4955 135.446L25.1566 143.758Z"
        />
        <path d="M13.0744 129.608L14.6786 131.998L20.8104 127.897L21.2543 128.558L15.1225 132.659L16.7267 135.049L16.14 135.442L12.4877 130.001L13.0744 129.608Z"
        />
        <path d="M13.8603 116.779L14.4957 116.471L16.868 121.35L9.5921 124.875L7.26458 120.088L7.89994 119.78L9.87932 123.851L12.5027 122.58L10.777 119.031L11.3816 118.738L13.1073 122.287L15.8845 120.942L13.8603 116.779ZM7.2503 122.584L7.29989 123.129L6.05343 122.987L5.69535 122.251L7.2503 122.584Z"
        />
        <path d="M12.61 111.764L4.90485 114.217L3.86671 110.967C3.76059 110.635 3.73243 110.31 3.78223 109.991C3.83203 109.673 3.944 109.375 4.11816 109.097C4.28278 108.814 4.49248 108.572 4.74727 108.371C4.99252 108.166 5.26346 108.016 5.56009 107.922C5.92908 107.804 6.29942 107.766 6.67113 107.807C7.04054 107.84 7.3789 107.951 7.68624 108.14C7.99126 108.321 8.23532 108.574 8.4184 108.898L10.7898 106.066L11.0632 106.922L8.79779 109.636L9.52449 111.911L12.3678 111.006L12.61 111.764ZM8.85164 112.125L8.04881 109.612C7.95192 109.309 7.78451 109.072 7.54659 108.901C7.30867 108.73 7.03626 108.625 6.72935 108.588C6.4152 108.553 6.10619 108.583 5.80233 108.68C5.49123 108.779 5.22852 108.942 5.0142 109.17C4.79034 109.392 4.63689 109.648 4.55385 109.937C4.46127 110.221 4.46112 110.507 4.5534 110.796L5.33547 113.245L8.85164 112.125Z"
        />
        <path d="M9.6331 100.941L1.69619 102.491L1.54307 101.71L9.47998 100.16L9.6331 100.941Z"/>
        <path d="M7.4585 89.4142L8.16233 89.3562L8.60953 94.7616L0.549545 95.4261L0.110781 90.1227L0.81461 90.0646L1.18775 94.5748L4.09388 94.3352L3.76856 90.403L4.43833 90.3478L4.76366 94.28L7.84007 94.0264L7.4585 89.4142Z"
        />
        <path d="M8.36262 81.0229C8.31801 81.6581 8.16667 82.187 7.90862 82.6097C7.65056 83.0324 7.32312 83.3591 6.9263 83.5897C6.52191 83.8197 6.07306 83.9783 5.57975 84.0653C5.08696 84.1448 4.58302 84.1666 4.0679 84.1305L0 83.8459L0.0549644 83.0632L4.12286 83.3479C4.5395 83.377 4.95149 83.3641 5.35881 83.309C5.76667 83.2463 6.13659 83.1278 6.46856 82.9535C6.80052 82.7792 7.07288 82.5322 7.28563 82.2128C7.4908 81.8928 7.61091 81.4832 7.64596 80.9842C7.68207 80.4699 7.61712 80.0399 7.45111 79.6939C7.27805 79.3398 7.03908 79.0571 6.73419 78.8458C6.42984 78.6269 6.08363 78.4621 5.69556 78.3514C5.29991 78.2401 4.89756 78.1702 4.4885 78.1415L0.420597 77.8568L0.476358 77.0628L4.54426 77.3475C5.0821 77.3852 5.59297 77.4817 6.07686 77.6372C6.56075 77.7926 6.97873 78.0194 7.3308 78.3176C7.6834 78.6083 7.95441 78.9768 8.14382 79.4232C8.33323 79.8696 8.40616 80.4028 8.36262 81.0229Z"
        />
        <path d="M9.43565 71.7722L1.5557 69.9553L2.32475 66.6316C2.40337 66.2919 2.54544 65.9979 2.75096 65.7496C2.95648 65.5014 3.20526 65.302 3.49728 65.1515C3.78361 64.9919 4.08757 64.8908 4.40917 64.8483C4.72507 64.7966 5.0347 64.8058 5.33806 64.8757C5.71541 64.9627 6.05348 65.1185 6.35225 65.343C6.65274 65.5601 6.8869 65.828 7.05475 66.1468C7.2243 66.4582 7.30506 66.7997 7.29701 67.1713L10.7841 65.9447L10.5815 66.8199L7.24562 67.9996L6.70728 70.3262L9.6151 70.9967L9.43565 71.7722ZM6.01918 70.1676L6.61391 67.5972C6.68569 67.287 6.66298 66.9978 6.54578 66.7296C6.42858 66.4614 6.24763 66.233 6.00292 66.0443C5.75081 65.8539 5.46938 65.7229 5.15862 65.6512C4.84046 65.5779 4.53111 65.5844 4.23056 65.6707C3.92433 65.7479 3.66162 65.8896 3.44245 66.0958C3.21758 66.2929 3.07097 66.5392 3.00261 66.8346L2.42325 69.3385L6.01918 70.1676Z"
        />
        <path d="M13.6674 55.6537L14.3258 55.9087L12.3602 60.9652L4.82053 58.0447L6.74901 53.0836L7.4074 53.3386L5.76737 57.5577L8.48591 58.6107L9.91578 54.9323L10.5423 55.175L9.11245 58.8534L11.9903 59.9681L13.6674 55.6537Z"
        />
        <path d="M17.8049 34.3742L25.1011 36.7144L21.5166 29.9576L22.051 29.3217L26.0946 37.0714L25.6261 37.6289L17.2705 35.0101L17.8049 34.3742Z"
        />
        <path d="M34.0224 29.0968C33.541 29.5146 33.0594 29.782 32.5776 29.8989C32.0958 30.0158 31.6329 30.0158 31.1889 29.8989C30.7399 29.7763 30.3101 29.5718 29.8995 29.2853C29.4947 28.9938 29.1228 28.6536 28.784 28.2646L26.1081 25.1929L26.7011 24.6781L29.377 27.7498C29.6511 28.0644 29.9517 28.3459 30.2788 28.5944C30.6117 28.8378 30.9573 29.015 31.3155 29.1259C31.6738 29.2368 32.0413 29.2544 32.418 29.1785C32.7897 29.0969 33.1647 28.892 33.5429 28.5637C33.9325 28.2254 34.1911 27.8754 34.3187 27.5135C34.447 27.1409 34.4781 26.7723 34.4121 26.4077C34.3518 26.0382 34.2236 25.6773 34.0275 25.3251C33.8264 24.9673 33.5914 24.6339 33.3223 24.325L30.6464 21.2533L31.2481 20.731L33.924 23.8027C34.2778 24.2088 34.5708 24.6376 34.803 25.089C35.0352 25.5404 35.1702 25.9957 35.2081 26.4551C35.2517 26.9095 35.1825 27.3614 35.0004 27.8108C34.8183 28.2602 34.4923 28.6889 34.0224 29.0968Z"
        />
        <path d="M45.5598 19.8256L45.9369 20.4216L41.3432 23.3182L37.0242 16.4927L41.5312 13.6508L41.9083 14.2468L38.0755 16.6636L39.6328 19.1246L42.9745 17.0175L43.3334 17.5847L39.9917 19.6918L41.6402 22.2971L45.5598 19.8256Z"
        />
        <path d="M56.8898 15.2607L54.0393 7.70557L54.7855 7.42504L57.636 14.9801L56.8898 15.2607Z"/>
        <path d="M62.0284 6.5789L63.5727 13.0029L62.7973 13.1886L60.9102 5.3383L61.5526 5.18441L68.2877 10.4936L66.7168 3.95907L67.4922 3.77334L69.3766 11.6126L68.6567 11.785L62.0284 6.5789Z"
        />
        <path d="M80.2873 2.90991L77.4154 3.14875L78.0282 10.4915L77.2337 10.5576L76.6208 3.21484L73.7489 3.45369L73.6903 2.75114L80.2287 2.20736L80.2873 2.90991Z"
        />
        <path d="M91.1401 9.8279L91.101 10.5318L85.6759 10.2314L86.1238 2.17063L91.4465 2.46536L91.4074 3.16926L86.8809 2.91861L86.7193 5.82502L90.6659 6.04356L90.6286 6.71339L86.6821 6.49486L86.5112 9.57158L91.1401 9.8279ZM89.2672 1.24003L88.7661 1.01869L89.4958 0L90.3147 0.0453438L89.2672 1.24003Z"
        />
        <path d="M96.138 11.1729L97.7334 3.25839L101.083 3.9313C101.426 4.00009 101.724 4.13349 101.979 4.33151C102.233 4.52954 102.44 4.7721 102.599 5.05921C102.767 5.34038 102.877 5.64081 102.929 5.9605C102.989 6.27426 102.989 6.58348 102.927 6.88817C102.851 7.26718 102.705 7.60893 102.488 7.91344C102.28 8.21945 102.018 8.46072 101.703 8.63726C101.396 8.8153 101.057 8.90559 100.684 8.90813L102.012 12.3528L101.13 12.1756L99.8535 8.88039L97.5084 8.40935L96.9197 11.3299L96.138 11.1729ZM97.6477 7.71823L100.238 8.23861C100.551 8.30142 100.84 8.27054 101.105 8.14597C101.371 8.0214 101.594 7.83435 101.776 7.5848C101.96 7.32783 102.083 7.04328 102.146 6.73116C102.21 6.4116 102.195 6.10311 102.1 5.80567C102.014 5.50229 101.865 5.24418 101.652 5.03134C101.448 4.81257 101.197 4.67327 100.899 4.61346L98.3758 4.10653L97.6477 7.71823Z"
        />
        <path d="M107.061 13.833L109.559 6.15465L110.318 6.4005L107.82 14.0789L107.061 13.833Z"/>
        <path d="M118.211 17.5349L117.92 18.1772L112.969 15.9416L116.303 8.58614L121.16 10.7795L120.869 11.4218L116.738 9.55652L115.536 12.2086L119.137 13.8349L118.86 14.4462L115.259 12.8199L113.987 15.6274L118.211 17.5349Z"
        />
        <path d="M125.119 22.3997C124.585 22.0523 124.195 21.6633 123.95 21.2328C123.706 20.8023 123.579 20.3579 123.569 19.8996C123.564 19.435 123.644 18.9664 123.807 18.4936C123.977 18.025 124.203 17.5748 124.484 17.1428L126.71 13.7317L127.368 14.1598L125.143 17.571C124.915 17.9203 124.726 18.2861 124.577 18.6683C124.433 19.0546 124.357 19.4349 124.349 19.8093C124.34 20.1836 124.424 20.5412 124.6 20.882C124.781 21.2165 125.081 21.5202 125.501 21.7933C125.934 22.0745 126.342 22.2268 126.726 22.25C127.12 22.271 127.483 22.1998 127.817 22.0364C128.156 21.8772 128.469 21.6552 128.754 21.3704C129.044 21.0792 129.3 20.7621 129.524 20.4191L131.749 17.0079L132.418 17.4423L130.192 20.8534C129.898 21.3044 129.565 21.7033 129.194 22.05C128.823 22.3967 128.421 22.6512 127.989 22.8136C127.563 22.9801 127.109 23.0375 126.626 22.9859C126.143 22.9343 125.641 22.739 125.119 22.3997Z"
        />
        <path d="M132.698 27.8302L138.117 21.8372L140.654 24.1227C140.913 24.3564 141.102 24.6232 141.219 24.9231C141.337 25.223 141.39 25.5369 141.38 25.8648C141.381 26.1922 141.322 26.5065 141.203 26.8078C141.095 27.1085 140.936 27.3742 140.728 27.605C140.468 27.892 140.167 28.1113 139.826 28.2629C139.49 28.4196 139.141 28.4938 138.781 28.4854C138.426 28.4821 138.087 28.3867 137.766 28.1991L137.146 31.8376L136.478 31.2357L137.066 27.7519L135.29 26.152L133.29 28.3635L132.698 27.8302ZM135.763 25.6286L137.725 27.3962C137.961 27.6095 138.226 27.7302 138.518 27.7582C138.809 27.7862 139.097 27.7393 139.381 27.6174C139.671 27.4899 139.922 27.308 140.136 27.0717C140.354 26.8297 140.499 26.5566 140.569 26.2525C140.651 25.9478 140.654 25.6497 140.58 25.3583C140.517 25.0663 140.372 24.8188 140.147 24.6156L138.236 22.8938L135.763 25.6286Z"
        />
        <path d="M144.756 39.3523L144.213 39.8029L140.74 35.6316L146.96 30.4716L150.368 34.5642L149.824 35.0148L146.927 31.5343L144.684 33.3948L147.21 36.4293L146.694 36.8581L144.167 33.8236L141.793 35.7931L144.756 39.3523Z"
        />
        <path d="M161.38 53.2996L155.786 58.529L163.444 58.6836L163.741 59.4588L154.991 59.2225L154.73 58.5428L161.082 52.5244L161.38 53.2996Z"
        />
        <path d="M158.123 70.0134C157.991 69.3904 157.99 68.8403 158.122 68.3631C158.254 67.8859 158.479 67.482 158.797 67.1514C159.122 66.8192 159.51 66.5435 159.96 66.3244C160.412 66.1128 160.891 65.9536 161.396 65.8469L165.385 65.0041L165.548 65.7717L161.559 66.6144C161.15 66.7007 160.757 66.8263 160.381 66.991C160.006 67.1632 159.683 67.3786 159.412 67.6374C159.141 67.8961 158.947 68.2082 158.83 68.5738C158.721 68.9378 158.719 69.3645 158.822 69.854C158.929 70.3583 159.11 70.754 159.365 71.041C159.629 71.334 159.936 71.5402 160.288 71.6597C160.641 71.7866 161.019 71.85 161.423 71.85C161.834 71.8484 162.24 71.8052 162.641 71.7205L166.631 70.8778L166.796 71.6565L162.806 72.4992C162.279 72.6106 161.761 72.658 161.253 72.6413C160.745 72.6247 160.28 72.5213 159.86 72.3312C159.441 72.1486 159.079 71.8686 158.774 71.4914C158.468 71.1142 158.251 70.6215 158.123 70.0134Z"
        />
        <path d="M160.636 84.584L159.931 84.6235L159.626 79.2083L167.701 78.7553L168 84.0684L167.295 84.1079L167.041 79.5895L164.129 79.7529L164.351 83.6923L163.68 83.7299L163.458 79.7905L160.376 79.9634L160.636 84.584Z"
        />
        <path d="M159.13 96.6877L167.13 97.8706L167.013 98.658L159.013 97.4751L159.13 96.6877Z"/>
        <path d="M164.236 105.388L157.861 103.615L158.075 102.849L165.865 105.015L165.688 105.651L157.767 108.948L164.252 110.752L164.038 111.519L156.259 109.355L156.457 108.643L164.236 105.388Z"
        />
        <path d="M158.579 123.102L159.765 120.481L153.037 117.448L153.366 116.723L160.093 119.755L161.279 117.133L161.922 117.423L159.222 123.393L158.579 123.102Z"
        />
        <path d="M147.249 129.212L146.652 128.835L149.55 124.248L156.391 128.554L153.547 133.055L152.95 132.679L155.368 128.852L152.902 127.299L150.793 130.636L150.225 130.278L152.333 126.941L149.722 125.297L147.249 129.212ZM155.679 131.749L156.116 131.419L156.654 132.551L156.216 133.243L155.679 131.749Z"
        />
        <path d="M143.644 132.919L149.799 138.156L147.582 140.752C147.356 141.017 147.094 141.213 146.797 141.339C146.5 141.464 146.187 141.527 145.859 141.526C145.531 141.536 145.214 141.486 144.909 141.376C144.605 141.276 144.334 141.126 144.097 140.924C143.803 140.674 143.575 140.38 143.413 140.043C143.247 139.712 143.162 139.367 143.161 139.007C143.154 138.652 143.24 138.312 143.418 137.986L139.757 137.471L140.341 136.787L143.846 137.274L145.398 135.457L143.127 133.525L143.644 132.919ZM145.935 135.914L144.221 137.922C144.014 138.164 143.901 138.432 143.881 138.723C143.861 139.015 143.917 139.301 144.047 139.581C144.183 139.866 144.372 140.112 144.615 140.319C144.863 140.53 145.141 140.667 145.447 140.728C145.755 140.8 146.053 140.796 146.343 140.713C146.634 140.642 146.877 140.491 147.074 140.26L148.744 138.304L145.935 135.914Z"
        />
        <path d="M136.008 141.158L141.518 147.067L140.934 147.61L135.424 141.7L136.008 141.158Z"/>
        <path d="M127.351 149.088L126.93 148.522L131.292 145.289L136.113 151.77L131.834 154.943L131.412 154.377L135.052 151.679L133.314 149.342L130.14 151.694L129.74 151.155L132.913 148.803L131.073 146.329L127.351 149.088Z"
        />
        <path d="M119.734 152.753C120.298 152.455 120.828 152.304 121.324 152.3C121.82 152.295 122.271 152.4 122.676 152.615C123.086 152.836 123.458 153.133 123.792 153.505C124.12 153.881 124.405 154.297 124.646 154.752L126.552 158.351L125.857 158.718L123.951 155.119C123.756 154.75 123.527 154.408 123.265 154.092C122.997 153.779 122.701 153.528 122.377 153.339C122.053 153.149 121.7 153.049 121.315 153.037C120.935 153.032 120.523 153.147 120.08 153.381C119.623 153.621 119.292 153.904 119.085 154.227C118.875 154.561 118.761 154.913 118.742 155.283C118.717 155.656 118.759 156.037 118.87 156.424C118.984 156.818 119.137 157.196 119.329 157.558L121.235 161.157L120.53 161.529L118.624 157.93C118.372 157.454 118.184 156.97 118.061 156.478C117.938 155.986 117.91 155.512 117.978 155.056C118.039 154.603 118.209 154.179 118.489 153.783C118.769 153.387 119.184 153.043 119.734 152.753Z"
        />
        <path d="M111.298 156.728L113.914 164.367L110.68 165.47C110.35 165.583 110.024 165.618 109.705 165.575C109.385 165.532 109.084 165.426 108.802 165.258C108.515 165.1 108.268 164.895 108.062 164.645C107.851 164.405 107.696 164.137 107.595 163.843C107.47 163.477 107.424 163.109 107.457 162.737C107.483 162.367 107.587 162.027 107.77 161.717C107.945 161.409 108.193 161.16 108.513 160.97L105.629 158.662L106.48 158.372L109.245 160.577L111.509 159.804L110.544 156.985L111.298 156.728ZM111.737 160.471L109.237 161.325C108.935 161.427 108.701 161.599 108.534 161.84C108.368 162.081 108.269 162.355 108.238 162.662C108.209 162.977 108.246 163.284 108.35 163.586C108.455 163.894 108.624 164.153 108.856 164.362C109.084 164.581 109.343 164.729 109.634 164.806C109.92 164.892 110.207 164.887 110.495 164.789L112.931 163.958L111.737 160.471Z"
        />
        <path d="M95.3517 161.652L95.221 160.959L100.56 159.956L102.057 167.889L96.8186 168.874L96.6879 168.181L101.143 167.344L100.603 164.483L96.7191 165.213L96.5947 164.554L100.479 163.824L99.9076 160.796L95.3517 161.652Z"
        />
    </g>
    <g id="scroll" fill="currentColor">
        <path d="M102.134 159.961L103.509 166.772L102.839 166.908L101.584 160.691L97.6613 161.488L97.5412 160.893L102.134 159.961Z"
        />
        <path d="M18.3352 131.665C17.9798 131.895 17.5938 132.059 17.1772 132.158C16.7516 132.255 16.3234 132.276 15.8928 132.221C15.4567 132.169 15.0454 132.024 14.6589 131.785C14.267 131.549 13.9298 131.212 13.6474 130.774C13.3119 130.253 13.1462 129.731 13.1502 129.208C13.1452 128.683 13.2721 128.212 13.5309 127.796L14.101 128.068C13.9252 128.36 13.8253 128.65 13.8013 128.938C13.7718 129.229 13.7949 129.505 13.8705 129.767C13.9426 130.023 14.0475 130.258 14.1852 130.472C14.4112 130.823 14.6817 131.086 14.9969 131.263C15.3066 131.443 15.639 131.55 15.9941 131.584C16.3402 131.616 16.6882 131.585 17.038 131.491C17.3823 131.4 17.702 131.259 17.9973 131.068C18.3198 130.859 18.5934 130.604 18.818 130.303C19.0426 130.003 19.2062 129.679 19.3087 129.333C19.4057 128.991 19.4378 128.644 19.405 128.292C19.3632 127.938 19.2417 127.605 19.0405 127.293C18.8992 127.074 18.7162 126.874 18.4914 126.693C18.2665 126.512 18.0113 126.375 17.7256 126.28C17.4365 126.18 17.1273 126.151 16.7981 126.193L16.737 125.557C17.1044 125.49 17.4705 125.517 17.8352 125.638C18.1999 125.759 18.5348 125.943 18.8399 126.188C19.1415 126.428 19.3876 126.695 19.5783 126.991C19.836 127.392 19.9879 127.814 20.0338 128.258C20.0742 128.705 20.0317 129.145 19.9063 129.575C19.7719 130.004 19.5694 130.399 19.2988 130.761C19.0227 131.126 18.7015 131.427 18.3352 131.665Z"
        />
        <path d="M13.8629 116.574C14.0574 117.023 14.1443 117.469 14.1235 117.912C14.1026 118.355 13.9971 118.775 13.8068 119.171C13.6106 119.569 13.3526 119.924 13.0328 120.234C12.7071 120.546 12.3413 120.791 11.9355 120.968C11.5117 121.153 11.0764 121.254 10.6295 121.27C10.1767 121.29 9.74269 121.23 9.32752 121.091C8.90378 120.948 8.52625 120.732 8.19492 120.442C7.85762 120.155 7.59688 119.799 7.41271 119.374C7.21816 118.926 7.13428 118.478 7.16108 118.033C7.18787 117.587 7.30069 117.168 7.49952 116.775C7.69576 116.377 7.95375 116.022 8.2735 115.712C8.59324 115.402 8.95307 115.16 9.35298 114.986C9.77676 114.801 10.2151 114.699 10.6679 114.68C11.1147 114.663 11.5487 114.723 11.9699 114.859C12.385 114.999 12.7583 115.213 13.0896 115.503C13.421 115.792 13.6787 116.15 13.8629 116.574ZM11.6631 120.34C12.0093 120.189 12.3189 119.986 12.5919 119.732C12.859 119.481 13.0725 119.196 13.2323 118.877C13.3863 118.561 13.4756 118.227 13.5003 117.874C13.5164 117.519 13.4493 117.167 13.2988 116.82C13.1406 116.455 12.9246 116.162 12.6509 115.939C12.3686 115.714 12.058 115.554 11.7191 115.46C11.3717 115.362 11.0164 115.328 10.6534 115.358C10.2903 115.388 9.94468 115.475 9.6164 115.618C9.27021 115.769 8.96359 115.97 8.69653 116.222C8.42947 116.473 8.21729 116.761 8.05998 117.086C7.90008 117.405 7.81077 117.739 7.79203 118.089C7.77329 118.438 7.83915 118.787 7.9896 119.134C8.14524 119.493 8.36123 119.786 8.63756 120.015C8.91129 120.237 9.22188 120.397 9.56933 120.494C9.90821 120.589 10.2605 120.624 10.6261 120.6C10.9891 120.569 11.3348 120.483 11.6631 120.34Z"
        />
        <path d="M3.37426 108.429L8.66714 104.53L2.16649 103.617L1.99259 102.924L9.41455 104.019L9.56701 104.626L3.54815 109.122L3.37426 108.429Z"
        />
        <path d="M6.56677 90.4912L7.16915 90.4322L7.62232 95.0787L0.724094 95.755L0.279476 91.1961L0.881857 91.1371L1.25997 95.0141L3.74722 94.7702L3.41756 91.39L3.99079 91.3338L4.32045 94.7141L6.95344 94.4559L6.56677 90.4912Z"
        />
        <path d="M6.92191 83.949L0 83.5908L0.15095 80.6584C0.166381 80.3586 0.242214 80.0881 0.378451 79.8469C0.514687 79.6057 0.694742 79.3994 0.918616 79.228C1.13633 79.0498 1.37769 78.9185 1.6427 78.8342C1.90154 78.7431 2.1642 78.7044 2.43068 78.7182C2.76215 78.7354 3.07077 78.8167 3.35654 78.9621C3.64264 79.1011 3.88039 79.2931 4.0698 79.5381C4.25954 79.7766 4.37886 80.0539 4.42775 80.3701L7.18658 78.8075L7.14683 79.5797L4.50852 81.0799L4.40285 83.1326L6.95713 83.2648L6.92191 83.949ZM3.7984 83.1013L3.91514 80.8336C3.92923 80.5599 3.86673 80.3182 3.72764 80.1084C3.58855 79.8987 3.40162 79.7322 3.16684 79.609C2.92556 79.4854 2.66844 79.4166 2.39546 79.4024C2.11598 79.388 1.8559 79.4398 1.61521 79.5581C1.36836 79.6694 1.1679 79.8289 1.01385 80.0366C0.853624 80.2374 0.766804 80.4681 0.753387 80.7288L0.639671 82.9379L3.7984 83.1013Z"
        />
        <path d="M5.33025 59.3057C5.1959 59.3668 5.06924 59.4474 4.95027 59.5474C4.82508 59.6455 4.70757 59.763 4.59776 59.8999C4.48794 60.0368 4.38677 60.1901 4.29424 60.3596C4.20361 60.5228 4.12785 60.7043 4.06695 60.904C3.88996 61.4843 3.87162 61.9461 4.01194 62.2893C4.14793 62.6244 4.40575 62.8502 4.78539 62.9666C5.04678 63.0467 5.27119 63.0473 5.45862 62.9683C5.64795 62.883 5.83116 62.7174 6.00825 62.4715C6.18535 62.2256 6.38839 61.9057 6.61738 61.5119C6.86159 61.0682 7.10449 60.6957 7.34608 60.3945C7.58767 60.0933 7.85526 59.8854 8.14886 59.7707C8.43622 59.6541 8.77906 59.6568 9.17737 59.7789C9.48233 59.8724 9.72876 60.0128 9.91665 60.2001C10.1045 60.3873 10.2408 60.6099 10.3255 60.8679C10.4101 61.1258 10.4451 61.4129 10.4303 61.7291C10.4093 62.0433 10.3456 62.3752 10.239 62.7246C10.1343 63.0678 9.99922 63.388 9.8337 63.6853C9.66386 63.9744 9.46766 64.2383 9.2451 64.4772C9.01632 64.7141 8.75591 64.9208 8.46386 65.0974L8.03165 64.6066C8.19228 64.5262 8.35335 64.4221 8.51486 64.2942C8.67204 64.1582 8.82465 64.0037 8.97268 63.8307C9.12261 63.6515 9.25768 63.4541 9.37789 63.2385C9.49377 63.0147 9.58977 62.778 9.6659 62.5284C9.82766 61.998 9.8568 61.5566 9.75331 61.2042C9.65173 60.8455 9.41112 60.608 9.03148 60.4916C8.75764 60.4077 8.51697 60.4158 8.30948 60.5159C8.09577 60.6141 7.89034 60.7968 7.69319 61.0639C7.49604 61.331 7.28107 61.6676 7.04827 62.0739C6.80164 62.5032 6.56445 62.857 6.33669 63.1351C6.10894 63.4133 5.86452 63.6011 5.60343 63.6984C5.33803 63.7876 5.02795 63.7779 4.67321 63.6691C4.26245 63.5432 3.94748 63.3374 3.72832 63.0519C3.50484 62.7582 3.37576 62.4116 3.3411 62.012C3.30021 61.6105 3.35018 61.1789 3.49101 60.7172C3.58045 60.4239 3.69435 60.162 3.83271 59.9315C3.96675 59.6928 4.12214 59.4846 4.29887 59.3068C4.47751 59.1227 4.67939 58.9628 4.90452 58.8272L5.33025 59.3057Z"
        />
        <path d="M9.78037 53.1919C9.39868 53.009 9.05668 52.7656 8.75435 52.4616C8.44895 52.149 8.20684 51.7943 8.02803 51.3977C7.84335 50.9982 7.75132 50.5708 7.75195 50.1155C7.7467 49.6574 7.85632 49.1928 8.08081 48.7218C8.3474 48.1625 8.70388 47.7475 9.15026 47.4769C9.59358 47.1975 10.0598 47.0593 10.5489 47.0622L10.6168 47.6914C10.2763 47.6946 9.97767 47.7612 9.72091 47.8913C9.45828 48.0186 9.23561 48.1831 9.0529 48.3849C8.873 48.5807 8.72833 48.7934 8.61889 49.023C8.43929 49.3998 8.35708 49.7691 8.37226 50.1307C8.38156 50.4895 8.46475 50.8295 8.62184 51.1506C8.77586 51.4631 8.98463 51.7439 9.24815 51.9931C9.50579 52.2395 9.79315 52.4387 10.1102 52.5906C10.4567 52.7566 10.8165 52.8567 11.1897 52.8909C11.563 52.925 11.9234 52.8952 12.271 52.8015C12.6128 52.7049 12.9244 52.5504 13.2059 52.3382C13.4844 52.1172 13.7036 51.8389 13.8635 51.5034C13.9758 51.2679 14.0497 51.0068 14.0853 50.7201C14.121 50.4335 14.1042 50.1434 14.0349 49.8498C13.9685 49.5504 13.831 49.2712 13.6227 49.0123L14.131 48.6267C14.3805 48.9053 14.5494 49.2321 14.6375 49.607C14.7257 49.9819 14.7456 50.3639 14.6972 50.753C14.6517 51.1361 14.5531 51.4866 14.4016 51.8046C14.1967 52.2343 13.9177 52.5852 13.5645 52.8571C13.2054 53.1262 12.8101 53.3201 12.3784 53.4387C11.9438 53.5486 11.5019 53.5828 11.0529 53.5412C10.598 53.4969 10.1738 53.3804 9.78037 53.1919Z"
        />
        <path d="M18.6421 43.7574L12.9202 39.8356L14.573 37.4116C14.742 37.1638 14.9473 36.9725 15.1889 36.8378C15.4305 36.7031 15.6914 36.6211 15.9716 36.5918C16.25 36.5534 16.5242 36.5674 16.7942 36.6339C17.0625 36.6914 17.3068 36.7956 17.5271 36.9465C17.8011 37.1344 18.0223 37.365 18.1906 37.6384C18.3626 37.9065 18.4657 38.1946 18.5001 38.5026C18.5381 38.8053 18.4958 39.1044 18.3732 39.3998L21.54 39.5073L21.1048 40.1456L18.0733 40.0478L16.9163 41.7446L19.0278 43.1918L18.6421 43.7574ZM16.4167 41.4022L17.6948 39.5276C17.8491 39.3013 17.9213 39.0624 17.9116 38.8107C17.9019 38.559 17.8289 38.3192 17.6925 38.0914C17.5508 37.8599 17.3671 37.6668 17.1415 37.5122C16.9104 37.3538 16.6615 37.2622 16.3946 37.2374C16.126 37.2035 15.872 37.2349 15.6326 37.3317C15.3915 37.4193 15.1975 37.5709 15.0506 37.7864L13.8055 39.6125L16.4167 41.4022Z"
        />
        <path d="M27.6254 32.1696C27.2881 32.5233 26.9117 32.7763 26.4962 32.9286C26.0807 33.081 25.654 33.1459 25.2162 33.1234C24.7737 33.0964 24.348 32.9951 23.939 32.8197C23.5254 32.6397 23.1586 32.3964 22.8388 32.0897C22.5048 31.7695 22.2436 31.4061 22.055 30.9996C21.8618 30.5885 21.7488 30.1642 21.716 29.7265C21.6831 29.2795 21.7356 28.8468 21.8736 28.4284C22.0069 28.0054 22.2332 27.6266 22.5526 27.2917C22.8899 26.9381 23.2687 26.6873 23.6889 26.5395C24.1091 26.3916 24.5382 26.3336 24.9762 26.3653C25.4187 26.3923 25.8444 26.4936 26.2534 26.669C26.6624 26.8445 27.0244 27.0833 27.3395 27.3855C27.6735 27.7057 27.9371 28.0713 28.1303 28.4824C28.3189 28.8889 28.4319 29.3133 28.4694 29.7555C28.5021 30.1932 28.4495 30.6213 28.3115 31.0397C28.1735 31.4581 27.9448 31.8348 27.6254 32.1696ZM23.3111 31.5945C23.5839 31.8561 23.89 32.0639 24.2295 32.2178C24.5642 32.3673 24.9091 32.4542 25.264 32.4785C25.6143 32.4984 25.9562 32.4515 26.2897 32.3379C26.623 32.2151 26.9201 32.0169 27.181 31.7434C27.4554 31.4557 27.6417 31.1424 27.7401 30.8033C27.8382 30.4549 27.8649 30.1059 27.8203 29.7561C27.7755 29.3972 27.669 29.0557 27.5007 28.7318C27.3323 28.4079 27.1188 28.1219 26.8602 27.8739C26.5874 27.6123 26.2836 27.4068 25.9489 27.2573C25.6141 27.1079 25.267 27.0234 24.9075 27.0037C24.5525 26.9794 24.2107 27.0262 23.8819 27.1443C23.5531 27.2625 23.2582 27.4583 22.9973 27.7318C22.7274 28.0147 22.5411 28.3281 22.4383 28.6719C22.3399 29.011 22.3132 29.3601 22.358 29.719C22.4026 30.0688 22.5068 30.408 22.6706 30.7366C22.8389 31.0605 23.0524 31.3465 23.3111 31.5945Z"
        />
        <path d="M35.2454 24.8718L31.0561 19.3356L31.6005 18.9214L35.424 23.9743L38.6126 21.5487L38.9785 22.0322L35.2454 24.8718Z"
        />
        <path d="M44.337 18.4555L40.9849 12.373L41.583 12.0416L44.6424 17.593L48.1457 15.6522L48.4384 16.1833L44.337 18.4555Z"
        />
        <path d="M64.3185 3.46357L61.9345 4.11076L63.5878 10.2328L62.9282 10.4118L61.2749 4.28982L58.891 4.93701L58.7328 4.35126L64.1603 2.87782L64.3185 3.46357Z"
        />
        <path d="M74.8362 8.05141C74.3508 8.10307 73.9004 8.05259 73.4851 7.89995C73.0697 7.74731 72.7021 7.52068 72.3823 7.22007C72.0618 6.91297 71.8019 6.56005 71.6026 6.1613C71.4026 5.75607 71.2793 5.33284 71.2326 4.89161C71.1838 4.43091 71.2183 3.98432 71.3361 3.55182C71.4533 3.11283 71.6403 2.71562 71.8971 2.36019C72.1598 1.99758 72.4785 1.70117 72.8534 1.47098C73.2276 1.2343 73.6444 1.0915 74.1039 1.04259C74.5893 0.990926 75.04 1.04466 75.4561 1.20379C75.8721 1.36291 76.2372 1.59637 76.5512 1.90416C76.8717 2.21126 77.1316 2.56419 77.3309 2.96293C77.5302 3.36167 77.6528 3.77842 77.6988 4.21316C77.7476 4.67385 77.7135 5.1237 77.5963 5.56268C77.4785 5.99518 77.2915 6.39239 77.0353 6.75431C76.7784 7.10975 76.4626 7.40256 76.0877 7.63275C75.7129 7.86295 75.2957 8.0025 74.8362 8.05141ZM71.9121 4.81928C71.9519 5.19562 72.0519 5.55244 72.212 5.88974C72.3713 6.22056 72.5787 6.51017 72.8341 6.75858C73.0888 7.00051 73.38 7.18605 73.7078 7.3152C74.0414 7.43717 74.3959 7.47818 74.7713 7.43823C75.1661 7.39621 75.5102 7.27755 75.8036 7.08227C76.1029 6.87981 76.3481 6.63061 76.5393 6.33466C76.7363 6.03154 76.8748 5.70182 76.9549 5.34552C77.0349 4.98922 77.0561 4.63263 77.0183 4.27576C76.9784 3.89941 76.8788 3.54583 76.7194 3.21502C76.5601 2.88421 76.3495 2.59494 76.0876 2.34722C75.8323 2.0988 75.541 1.91326 75.2139 1.7906C74.8867 1.66794 74.5355 1.62658 74.1601 1.66654C73.7718 1.70787 73.4277 1.82652 73.1278 2.0225C72.8343 2.21778 72.5891 2.46698 72.3921 2.77011C72.2009 3.06605 72.0621 3.39252 71.9755 3.74951C71.8955 4.10581 71.8743 4.4624 71.9121 4.81928Z"
        />
        <path d="M92.7655 7.86201L93.8606 1L96.1837 1.37267C96.9099 1.48916 97.4893 1.74071 97.9219 2.1273C98.362 2.50848 98.6625 2.9796 98.8234 3.54068C98.9853 4.09531 99.0159 4.68834 98.9152 5.31977C98.8041 6.01564 98.5725 6.59965 98.2203 7.07181C97.8746 7.545 97.4317 7.88365 96.8916 8.08778C96.358 8.29293 95.757 8.3419 95.0887 8.23468L92.7655 7.86201ZM98.2404 5.21153C98.3278 4.66386 98.3026 4.1609 98.1648 3.70266C98.0335 3.24545 97.794 2.86672 97.4465 2.56647C97.1 2.25977 96.6472 2.06158 96.0881 1.97189L94.4397 1.70746L93.5359 7.37104L95.1843 7.63547C95.7498 7.72618 96.2454 7.67683 96.6711 7.4874C97.0968 7.29797 97.4432 7.00661 97.7102 6.61331C97.9783 6.21358 98.1551 5.74631 98.2404 5.21153Z"
        />
        <path d="M105.083 10.3727L107.023 3.70108L107.679 3.89283L105.739 10.5644L105.083 10.3727Z"/>
        <path d="M117.373 8.80573C117.326 8.66549 117.259 8.53093 117.172 8.40207C117.088 8.26719 116.983 8.13799 116.859 8.01449C116.734 7.89098 116.592 7.77443 116.434 7.66483C116.281 7.55777 116.108 7.46368 115.917 7.38255C115.359 7.14677 114.903 7.08134 114.548 7.18624C114.201 7.28766 113.951 7.52175 113.797 7.88851C113.691 8.14104 113.667 8.3648 113.726 8.55981C113.792 8.75735 113.937 8.95699 114.163 9.15873C114.389 9.36046 114.686 9.59563 115.053 9.86423C115.468 10.1531 115.813 10.4334 116.087 10.7051C116.361 10.9768 116.54 11.2649 116.624 11.5695C116.711 11.868 116.673 12.2097 116.511 12.5945C116.387 12.8891 116.223 13.1205 116.018 13.2888C115.813 13.4571 115.578 13.5703 115.313 13.6284C115.049 13.6865 114.76 13.692 114.448 13.645C114.139 13.592 113.816 13.4945 113.48 13.3525C113.15 13.2131 112.846 13.0457 112.568 12.8502C112.299 12.6513 112.057 12.4287 111.843 12.1823C111.631 11.9299 111.452 11.6491 111.307 11.3398L111.838 10.9588C111.901 11.1272 111.988 11.2985 112.099 11.4727C112.218 11.6433 112.355 11.8113 112.512 11.9766C112.674 12.1444 112.856 12.2993 113.058 12.4412C113.268 12.5796 113.493 12.6996 113.733 12.801C114.243 13.0165 114.678 13.0906 115.038 13.0234C115.404 12.9587 115.665 12.7429 115.819 12.3762C115.93 12.1116 115.947 11.8708 115.868 11.6536C115.793 11.4304 115.633 11.2069 115.388 10.983C115.143 10.7591 114.831 10.5103 114.451 10.2366C114.051 9.94679 113.724 9.6741 113.471 9.41854C113.218 9.16298 113.057 8.90003 112.987 8.62969C112.926 8.35587 112.967 8.04761 113.111 7.7049C113.278 7.30807 113.514 7.01494 113.82 6.8255C114.134 6.63259 114.491 6.53925 114.891 6.54547C115.294 6.54568 115.717 6.63958 116.161 6.82719C116.443 6.94635 116.691 7.08669 116.905 7.24823C117.128 7.40628 117.319 7.58252 117.478 7.77695C117.642 7.9739 117.78 8.19158 117.892 8.42998L117.373 8.80573Z"
        />
        <path d="M122.985 13.8689C123.205 13.5069 123.482 13.1906 123.814 12.9201C124.156 12.6474 124.532 12.4422 124.944 12.3043C125.359 12.1609 125.793 12.1128 126.244 12.1599C126.7 12.2014 127.149 12.3582 127.594 12.6302C128.121 12.9532 128.497 13.3511 128.72 13.8239C128.952 14.2946 129.041 14.7737 128.988 15.2612L128.357 15.2648C128.389 14.9248 128.353 14.6201 128.25 14.3508C128.151 14.0758 128.01 13.8369 127.829 13.6341C127.653 13.4347 127.457 13.2687 127.24 13.1361C126.884 12.9185 126.526 12.7988 126.166 12.777C125.809 12.7496 125.463 12.7979 125.129 12.9218C124.803 13.0435 124.503 13.2231 124.229 13.4604C123.958 13.6922 123.731 13.9585 123.548 14.2593C123.348 14.5879 123.212 14.9365 123.14 15.3053C123.068 15.674 123.061 16.0366 123.118 16.3929C123.179 16.7436 123.3 17.0702 123.482 17.3726C123.673 17.6729 123.927 17.9199 124.243 18.1137C124.466 18.2497 124.717 18.3501 124.998 18.4149C125.279 18.4798 125.568 18.4926 125.867 18.4535C126.17 18.4178 126.461 18.3092 126.74 18.1278L127.07 18.6743C126.768 18.8946 126.427 19.0297 126.046 19.0793C125.665 19.129 125.284 19.1099 124.903 19.0219C124.527 18.9373 124.19 18.8032 123.89 18.6196C123.484 18.3714 123.165 18.0573 122.931 17.6773C122.701 17.2916 122.549 16.8775 122.475 16.4349C122.41 15.9902 122.421 15.546 122.509 15.1024C122.599 14.6532 122.758 14.242 122.985 13.8689Z"
        />
        <path d="M133.55 25.5132C133.181 25.1936 132.909 24.8298 132.736 24.4216C132.563 24.0134 132.476 23.5896 132.476 23.15C132.48 22.7056 132.559 22.2741 132.713 21.8555C132.871 21.4321 133.094 21.0523 133.383 20.7162C133.685 20.3654 134.033 20.0851 134.429 19.8753C134.828 19.6606 135.245 19.5256 135.679 19.4702C136.123 19.4142 136.556 19.4445 136.98 19.5611C137.408 19.6727 137.797 19.8798 138.147 20.1824C138.517 20.5019 138.786 20.8683 138.955 21.2814C139.124 21.6945 139.204 22.1212 139.195 22.5614C139.191 23.0058 139.112 23.4373 138.958 23.8559C138.805 24.2744 138.585 24.6492 138.301 24.9803C137.999 25.3312 137.648 25.614 137.249 25.8287C136.854 26.0384 136.437 26.1735 135.998 26.2338C135.564 26.2891 135.135 26.2585 134.711 26.1419C134.287 26.0253 133.9 25.8157 133.55 25.5132ZM133.901 21.1636C133.654 21.4503 133.463 21.7675 133.327 22.1153C133.196 22.4582 133.127 22.808 133.121 23.1647C133.119 23.5164 133.183 23.8563 133.314 24.1844C133.453 24.5118 133.666 24.7991 133.952 25.0462C134.252 25.3061 134.574 25.4766 134.917 25.5575C135.269 25.6378 135.618 25.6466 135.964 25.5839C136.319 25.5206 136.654 25.3963 136.968 25.2111C137.282 25.0258 137.556 24.7973 137.79 24.5255C138.036 24.2389 138.225 23.9241 138.357 23.5813C138.488 23.2384 138.555 22.8865 138.556 22.5255C138.562 22.1688 138.497 21.8289 138.363 21.5058C138.228 21.1827 138.018 20.8975 137.732 20.6504C137.436 20.3947 137.115 20.2243 136.767 20.139C136.424 20.0581 136.075 20.0493 135.72 20.1126C135.374 20.1753 135.041 20.2971 134.722 20.4781C134.408 20.6633 134.134 20.8918 133.901 21.1636Z"
        />
        <path d="M146.526 28.2834L143.448 34.1002L149.699 32.0922L150.156 32.6406L142.996 34.8864L142.596 34.4056L146.07 27.735L146.526 28.2834Z"
        />
        <path d="M151.421 45.8311L150.904 46.1467L148.483 42.1585L154.404 38.5455L156.779 42.4583L156.262 42.7738L154.242 39.4462L152.107 40.749L153.869 43.6502L153.377 43.9504L151.615 41.0492L149.356 42.4283L151.421 45.8311Z"
        />
        <path d="M153.935 51.8786L160.325 49.1871L161.46 51.8942C161.576 52.1709 161.625 52.4476 161.606 52.7242C161.588 53.0008 161.515 53.2651 161.388 53.5169C161.269 53.7722 161.108 53.9956 160.906 54.1869C160.713 54.3817 160.493 54.5309 160.247 54.6346C159.941 54.7635 159.628 54.8246 159.307 54.818C158.989 54.8174 158.692 54.7481 158.415 54.6098C158.141 54.4776 157.913 54.2798 157.732 54.0163L155.924 56.6251L155.625 55.9123L157.352 53.4121L156.558 51.5171L154.2 52.5103L153.935 51.8786ZM157.116 51.282L157.993 53.3755C158.099 53.6282 158.26 53.8187 158.476 53.9471C158.692 54.0755 158.933 54.144 159.198 54.1528C159.469 54.159 159.73 54.109 159.982 54.0029C160.24 53.8942 160.452 53.7342 160.617 53.5229C160.792 53.3151 160.903 53.0842 160.952 52.83C161.009 52.5794 160.987 52.3338 160.887 52.0931L160.032 50.0538L157.116 51.282Z"
        />
        <path d="M166.755 81.3251C166.86 81.2211 166.951 81.1016 167.028 80.9665C167.111 80.8311 167.181 80.6801 167.237 80.5135C167.293 80.347 167.335 80.1681 167.363 79.977C167.392 79.7924 167.4 79.5958 167.389 79.3874C167.354 78.7815 167.212 78.3418 166.962 78.0684C166.719 77.8012 166.399 77.6787 166.003 77.7012C165.73 77.7166 165.519 77.7939 165.371 77.933C165.222 78.0786 165.108 78.2975 165.026 78.5897C164.945 78.8819 164.865 79.2524 164.786 79.7013C164.71 80.2023 164.61 80.636 164.488 81.0024C164.365 81.3688 164.185 81.6567 163.949 81.8661C163.72 82.0752 163.397 82.1914 162.982 82.215C162.663 82.233 162.384 82.1867 162.143 82.0762C161.902 81.9656 161.697 81.804 161.529 81.5913C161.36 81.3787 161.228 81.1214 161.133 80.8196C161.045 80.5175 160.99 80.184 160.969 79.8192C160.949 79.4609 160.966 79.1136 161.018 78.7773C161.078 78.4471 161.171 78.1314 161.297 77.8302C161.43 77.5285 161.603 77.2443 161.817 76.9773L162.391 77.2879C162.268 77.419 162.153 77.5726 162.046 77.7486C161.945 77.9308 161.855 78.1286 161.776 78.3423C161.697 78.5624 161.639 78.7945 161.6 79.0384C161.569 79.2886 161.56 79.5439 161.575 79.8045C161.606 80.3583 161.731 80.7826 161.95 81.0774C162.169 81.3787 162.476 81.5181 162.873 81.4957C163.159 81.4795 163.382 81.3885 163.542 81.2226C163.708 81.0563 163.838 80.8137 163.931 80.4947C164.024 80.1757 164.109 79.7853 164.188 79.3234C164.271 78.835 164.372 78.4209 164.489 78.0809C164.607 77.7409 164.772 77.48 164.983 77.2981C165.201 77.1224 165.496 77.024 165.866 77.0031C166.295 76.9788 166.661 77.0626 166.965 77.2546C167.276 77.4526 167.517 77.7331 167.687 78.096C167.864 78.4585 167.966 78.8808 167.993 79.3629C168.011 79.6691 167.994 79.9544 167.944 80.2186C167.9 80.489 167.826 80.7383 167.722 80.9664C167.618 81.2011 167.483 81.4211 167.319 81.6264L166.755 81.3251Z"
        />
        <path d="M164.688 88.6053C165.109 88.6446 165.514 88.7544 165.902 88.9347C166.297 89.1222 166.646 89.371 166.951 89.6812C167.262 89.992 167.496 90.3611 167.652 90.7885C167.815 91.2165 167.873 91.6905 167.824 92.2102C167.767 92.8275 167.576 93.3404 167.25 93.7492C166.931 94.165 166.541 94.4564 166.081 94.6232L165.8 94.0564C166.119 93.9354 166.376 93.7693 166.572 93.5582C166.775 93.3477 166.927 93.1161 167.029 92.8635C167.13 92.6173 167.192 92.3676 167.216 92.1142C167.254 91.6984 167.204 91.3234 167.065 90.9894C166.932 90.6559 166.737 90.3658 166.479 90.1189C166.227 89.8791 165.934 89.688 165.601 89.5456C165.274 89.4037 164.936 89.3165 164.586 89.2839C164.203 89.2483 163.831 89.2791 163.469 89.3765C163.107 89.4738 162.779 89.6267 162.486 89.8353C162.198 90.0444 161.959 90.2974 161.768 90.5941C161.583 90.898 161.473 91.2351 161.439 91.6054C161.415 91.8653 161.436 92.1359 161.501 92.4173C161.567 92.6986 161.682 92.965 161.849 93.2164C162.014 93.4743 162.24 93.6886 162.524 93.8593L162.18 94.3974C161.85 94.2225 161.579 93.9744 161.367 93.6532C161.155 93.332 161.004 92.9805 160.916 92.5986C160.826 92.2233 160.798 91.8603 160.83 91.5094C160.874 91.0351 161.015 90.6092 161.253 90.2316C161.497 89.8546 161.801 89.5356 162.165 89.2746C162.535 89.0207 162.938 88.8354 163.373 88.7187C163.816 88.6027 164.254 88.5649 164.688 88.6053Z"
        />
        <path d="M159.627 100.53L166.349 102.226L165.634 105.073C165.561 105.365 165.434 105.615 165.254 105.825C165.074 106.036 164.857 106.203 164.605 106.328C164.357 106.46 164.095 106.542 163.818 106.573C163.547 106.612 163.282 106.599 163.023 106.534C162.701 106.453 162.414 106.313 162.162 106.115C161.908 105.923 161.712 105.689 161.573 105.411C161.433 105.141 161.37 104.845 161.383 104.526L158.374 105.523L158.562 104.773L161.441 103.814L161.941 101.82L159.46 101.195L159.627 100.53ZM162.528 101.968L161.975 104.171C161.908 104.436 161.923 104.686 162.019 104.918C162.115 105.151 162.266 105.351 162.473 105.517C162.685 105.685 162.924 105.803 163.19 105.87C163.461 105.938 163.726 105.938 163.985 105.869C164.249 105.807 164.476 105.69 164.667 105.516C164.863 105.35 164.993 105.141 165.057 104.887L165.595 102.742L162.528 101.968Z"
        />
        <path d="M155.195 114.518C155.39 114.069 155.656 113.701 155.993 113.414C156.33 113.127 156.708 112.918 157.127 112.787C157.551 112.659 157.986 112.607 158.43 112.629C158.88 112.655 159.308 112.756 159.714 112.933C160.138 113.118 160.508 113.368 160.825 113.684C161.148 114.003 161.401 114.362 161.583 114.761C161.768 115.169 161.868 115.593 161.883 116.034C161.903 116.477 161.822 116.911 161.637 117.336C161.443 117.784 161.174 118.151 160.831 118.435C160.488 118.72 160.105 118.923 159.683 119.045C159.258 119.173 158.824 119.226 158.38 119.203C157.936 119.18 157.513 119.082 157.114 118.907C156.69 118.723 156.316 118.471 155.993 118.152C155.676 117.836 155.424 117.477 155.236 117.075C155.054 116.676 154.956 116.256 154.941 115.816C154.926 115.375 155.011 114.943 155.195 114.518ZM159.442 113.561C159.095 113.41 158.736 113.322 158.365 113.295C157.999 113.271 157.646 113.309 157.304 113.409C156.969 113.512 156.664 113.674 156.39 113.897C156.12 114.127 155.91 114.416 155.759 114.763C155.601 115.128 155.534 115.487 155.559 115.839C155.587 116.2 155.682 116.537 155.845 116.85C156.011 117.171 156.228 117.454 156.498 117.7C156.768 117.946 157.067 118.14 157.395 118.283C157.741 118.434 158.097 118.521 158.463 118.545C158.828 118.57 159.183 118.529 159.527 118.422C159.869 118.322 160.173 118.16 160.441 117.935C160.709 117.71 160.918 117.424 161.068 117.077C161.224 116.718 161.291 116.359 161.269 116.001C161.244 115.649 161.149 115.312 160.983 114.991C160.82 114.678 160.606 114.396 160.338 114.144C160.069 113.899 159.77 113.704 159.442 113.561Z"
        />
        <path d="M150.563 124.008L156.403 127.75L156.035 128.327L150.705 124.912L148.549 128.293L148.039 127.966L150.563 124.008Z"
        />
        <path d="M144.245 133.18L149.489 137.725L149.042 138.243L144.256 134.095L141.639 137.131L141.181 136.734L144.245 133.18Z"
        />
        <path d="M130.668 154.176L132.682 152.742L129.019 147.571L129.576 147.174L133.239 152.345L135.252 150.911L135.603 151.406L131.019 154.671L130.668 154.176Z"
        />
        <path d="M119.217 153.518C119.655 153.301 120.095 153.192 120.537 153.192C120.979 153.191 121.402 153.276 121.806 153.447C122.213 153.624 122.578 153.865 122.903 154.17C123.23 154.481 123.492 154.836 123.688 155.233C123.893 155.649 124.014 156.08 124.053 156.526C124.095 156.979 124.056 157.416 123.938 157.839C123.816 158.27 123.619 158.659 123.347 159.005C123.078 159.357 122.736 159.635 122.322 159.84C121.884 160.057 121.443 160.163 120.997 160.158C120.552 160.153 120.129 160.061 119.728 159.881C119.321 159.704 118.956 159.463 118.631 159.158C118.307 158.853 118.048 158.504 117.855 158.112C117.65 157.697 117.527 157.263 117.486 156.81C117.447 156.364 117.485 155.926 117.601 155.498C117.719 155.075 117.915 154.691 118.187 154.345C118.459 153.999 118.803 153.723 119.217 153.518ZM123.075 155.537C122.908 155.198 122.691 154.897 122.425 154.636C122.161 154.381 121.867 154.181 121.541 154.037C121.219 153.898 120.882 153.825 120.53 153.818C120.174 153.819 119.828 153.903 119.489 154.071C119.133 154.247 118.851 154.478 118.643 154.763C118.432 155.057 118.288 155.375 118.211 155.719C118.131 156.072 118.115 156.43 118.162 156.792C118.21 157.154 118.313 157.496 118.472 157.817C118.639 158.157 118.854 158.454 119.118 158.709C119.382 158.964 119.679 159.163 120.01 159.304C120.336 159.449 120.673 159.522 121.022 159.524C121.371 159.525 121.715 159.442 122.054 159.275C122.404 159.101 122.686 158.87 122.899 158.583C123.107 158.298 123.252 157.979 123.332 157.626C123.409 157.282 123.427 156.928 123.385 156.563C123.337 156.201 123.234 155.859 123.075 155.537Z"
        />
        <path d="M102.459 159.913L103.799 166.731L101.49 167.187C100.769 167.329 100.138 167.294 99.5991 167.082C99.0547 166.877 98.6103 166.539 98.2658 166.068C97.9225 165.604 97.6892 165.058 97.566 164.431C97.4301 163.739 97.446 163.111 97.6136 162.546C97.7748 161.982 98.0735 161.511 98.5099 161.132C98.9398 160.754 99.4868 160.5 100.151 160.369L102.459 159.913ZM98.2364 164.298C98.3434 164.842 98.5405 165.306 98.8278 165.688C99.1088 166.071 99.4641 166.344 99.8937 166.505C100.325 166.672 100.818 166.701 101.373 166.592L103.011 166.268L101.906 160.641L100.268 160.964C99.706 161.075 99.258 161.293 98.9239 161.619C98.5898 161.944 98.3653 162.337 98.2504 162.799C98.1367 163.267 98.1321 163.767 98.2364 164.298Z"
        />
        <path d="M90.0359 161.828L90.517 168.76L89.8353 168.808L89.3542 161.875L90.0359 161.828Z"/>
        <path d="M79.0442 167.559C79.1366 167.675 79.2459 167.778 79.3721 167.869C79.4979 167.966 79.6406 168.051 79.8001 168.123C79.9597 168.196 80.1328 168.256 80.3196 168.304C80.4998 168.352 80.6939 168.38 80.902 168.39C81.5066 168.418 81.9573 168.321 82.2541 168.099C82.5441 167.884 82.6982 167.578 82.7165 167.18C82.729 166.906 82.6738 166.688 82.551 166.526C82.4216 166.363 82.2162 166.226 81.9346 166.115C81.653 166.004 81.2936 165.886 80.8563 165.762C80.367 165.635 79.9468 165.491 79.5958 165.331C79.2448 165.171 78.9775 164.963 78.7938 164.706C78.6098 164.456 78.5273 164.123 78.5465 163.706C78.5611 163.386 78.6356 163.112 78.7698 162.883C78.9041 162.654 79.0854 162.466 79.3136 162.32C79.5418 162.174 79.8104 162.069 80.1196 162.005C80.4284 161.947 80.7649 161.926 81.129 161.943C81.4865 161.96 81.8295 162.011 82.1577 162.098C82.4792 162.192 82.7829 162.317 83.0689 162.473C83.3546 162.637 83.619 162.838 83.8621 163.078L83.4952 163.62C83.3777 163.484 83.2371 163.353 83.0734 163.228C82.903 163.109 82.7158 162.999 82.512 162.899C82.3016 162.797 82.0773 162.715 81.8392 162.652C81.5942 162.595 81.3417 162.56 81.0817 162.549C80.5291 162.523 80.0954 162.604 79.7805 162.792C79.4592 162.98 79.2895 163.273 79.2712 163.67C79.2581 163.957 79.3257 164.189 79.4739 164.365C79.6219 164.549 79.8494 164.703 80.1563 164.828C80.4633 164.953 80.842 165.078 81.2923 165.204C81.7683 165.337 82.169 165.479 82.4942 165.631C82.8195 165.784 83.0616 165.974 83.2205 166.204C83.3726 166.439 83.4401 166.743 83.4231 167.114C83.4034 167.545 83.2828 167.902 83.0613 168.185C82.833 168.475 82.5302 168.687 82.1527 168.82C81.775 168.959 81.3456 169.018 80.8645 168.995C80.5589 168.981 80.2776 168.936 80.0205 168.859C79.7567 168.788 79.5169 168.688 79.3012 168.561C79.0791 168.433 78.8745 168.277 78.6875 168.092L79.0442 167.559Z"
        />
        <path d="M72.0324 164.755C71.9505 165.171 71.8002 165.563 71.5815 165.932C71.3553 166.307 71.0727 166.63 70.7339 166.902C70.3938 167.181 70.0037 167.376 69.5636 167.488C69.1223 167.607 68.6462 167.616 68.1354 167.515C67.5289 167.395 67.0394 167.152 66.6671 166.785C66.2872 166.424 66.0379 166.006 65.9193 165.53L66.5104 165.308C66.598 165.638 66.7365 165.911 66.9259 166.128C67.1141 166.352 67.3283 166.527 67.5686 166.654C67.8024 166.781 68.0439 166.868 68.2929 166.918C68.7015 166.999 69.0787 166.987 69.4243 166.882C69.7687 166.784 70.0765 166.619 70.3478 166.387C70.6114 166.159 70.8309 165.887 71.0063 165.569C71.1804 165.258 71.3015 164.929 71.3696 164.584C71.4439 164.206 71.4513 163.832 71.3917 163.461C71.3321 163.09 71.2138 162.747 71.0369 162.433C70.8588 162.125 70.6322 161.86 70.3572 161.64C70.0746 161.424 69.7514 161.28 69.3874 161.208C69.1321 161.158 68.8614 161.151 68.5756 161.187C68.2898 161.224 68.0137 161.312 67.7473 161.452C67.4745 161.591 67.2389 161.794 67.0404 162.06L66.5417 161.662C66.7489 161.351 67.0228 161.106 67.3631 160.927C67.7035 160.748 68.0676 160.634 68.4555 160.585C68.837 160.534 69.2001 160.543 69.5449 160.611C70.011 160.703 70.4192 160.887 70.7696 161.163C71.1188 161.444 71.4042 161.78 71.626 162.17C71.8401 162.565 71.9828 162.986 72.0541 163.432C72.1241 163.885 72.1169 164.326 72.0324 164.755Z"
        />
        <path d="M58.1025 157.492C58.5596 157.664 58.9398 157.911 59.243 158.234C59.5463 158.557 59.7738 158.925 59.9256 159.337C60.075 159.756 60.1498 160.188 60.15 160.634C60.1478 161.086 60.0692 161.52 59.9139 161.935C59.7518 162.369 59.5216 162.753 59.2231 163.087C58.9223 163.427 58.5778 163.698 58.1894 163.9C57.7926 164.107 57.3752 164.229 56.9372 164.266C56.497 164.31 56.0605 164.251 55.6278 164.088C55.1707 163.916 54.7916 163.666 54.4906 163.337C54.1896 163.008 53.9675 162.635 53.8241 162.219C53.6747 161.801 53.5999 161.369 53.5997 160.923C53.5995 160.477 53.6759 160.049 53.8289 159.639C53.991 159.206 54.2224 158.819 54.5232 158.479C54.8216 158.145 55.1662 157.874 55.5569 157.665C55.9453 157.462 56.3585 157.342 56.7964 157.305C57.2344 157.267 57.6698 157.33 58.1025 157.492ZM59.274 161.695C59.4064 161.34 59.4764 160.977 59.4838 160.603C59.489 160.236 59.4329 159.884 59.3155 159.547C59.1958 159.216 59.0182 158.92 58.7827 158.657C58.5389 158.398 58.2402 158.202 57.8867 158.07C57.515 157.93 57.1543 157.882 56.8047 157.925C56.4467 157.971 56.1161 158.084 55.813 158.263C55.5016 158.446 55.2305 158.678 54.9998 158.961C54.7691 159.243 54.591 159.553 54.4654 159.889C54.333 160.243 54.2642 160.604 54.259 160.972C54.2538 161.339 54.3129 161.692 54.4365 162.031C54.5539 162.368 54.7315 162.665 54.9692 162.921C55.207 163.178 55.5026 163.372 55.8561 163.505C56.2217 163.642 56.5824 163.691 56.9381 163.65C57.2878 163.607 57.6183 163.494 57.9298 163.312C58.2329 163.133 58.5028 162.903 58.7396 162.623C58.9703 162.34 59.1484 162.031 59.274 161.695Z"
        />
        <path d="M44.9716 159.392L45.8538 152.867L40.681 156.919L40.0632 156.562L46.0064 151.973L46.548 152.285L45.5893 159.749L44.9716 159.392Z"
        />
        <path d="M34.3259 144.624L34.7021 144.149L38.3494 147.052L34.0404 152.495L30.4619 149.647L30.8382 149.172L33.8814 151.593L35.4351 149.631L32.7818 147.519L33.1399 147.067L35.7932 149.179L37.4379 147.101L34.3259 144.624Z"
        />
        <path d="M29.881 139.822L24.8136 144.564L22.8155 142.417C22.6113 142.197 22.47 141.955 22.3917 141.689C22.3133 141.423 22.2905 141.15 22.3232 140.869C22.3467 140.588 22.4203 140.323 22.544 140.074C22.6586 139.824 22.8134 139.607 23.0084 139.425C23.2511 139.198 23.5239 139.032 23.8268 138.927C24.1253 138.817 24.4282 138.779 24.7356 138.813C25.0385 138.842 25.3203 138.949 25.581 139.133L26.3777 136.058L26.9039 136.624L26.1462 139.568L27.5449 141.071L29.4148 139.321L29.881 139.822ZM27.1023 141.485L25.5571 139.825C25.3707 139.625 25.1539 139.502 24.9068 139.456C24.6597 139.411 24.4104 139.43 24.1589 139.513C23.9026 139.601 23.6745 139.739 23.4747 139.926C23.2701 140.117 23.1265 140.341 23.044 140.597C22.9523 140.852 22.9274 141.107 22.9693 141.363C23.0019 141.618 23.1071 141.841 23.2847 142.031L24.7899 143.649L27.1023 141.485Z"
        />
    </g>
</svg>
