<svg viewBox="0 0 40 40" fill="none" xmlns="http://www.w3.org/2000/svg">
    <path d="M8.75 32.5H31.25C31.5624 32.4994 31.8636 32.6158 32.0945 32.8263C32.3253 33.0367 32.469 33.326 32.4972 33.6371C32.5254 33.9481 32.4361 34.2585 32.2469 34.5071C32.0578 34.7556 31.7824 34.9243 31.475 34.98L31.25 35H8.75C8.43764 35.0006 8.13637 34.8842 7.90554 34.6737C7.67471 34.4633 7.53104 34.174 7.50281 33.8629C7.47459 33.5519 7.56386 33.2415 7.75305 32.9929C7.94224 32.7444 8.21763 32.5757 8.525 32.52L8.75 32.5H31.25H8.75ZM19.775 2.52L20 2.5C20.2926 2.4999 20.5759 2.60243 20.8006 2.78972C21.0254 2.97702 21.1773 3.23721 21.23 3.525L21.25 3.75V25.73L27.955 19.0275C28.1618 18.8204 28.4348 18.6925 28.7262 18.666C29.0177 18.6395 29.3092 18.7161 29.55 18.8825L29.725 19.0275C29.9317 19.2346 30.0592 19.5077 30.0852 19.7992C30.1112 20.0906 30.0342 20.382 29.8675 20.6225L29.7225 20.795L20.885 29.635C20.6779 29.8417 20.4048 29.9692 20.1133 29.9952C19.8219 30.0212 19.5305 29.9442 19.29 29.7775L19.115 29.635L10.2775 20.795C10.056 20.5745 9.92519 20.2791 9.91074 19.9669C9.89629 19.6548 9.99929 19.3485 10.1994 19.1085C10.3996 18.8686 10.6824 18.7122 10.992 18.6704C11.3017 18.6286 11.6158 18.7042 11.8725 18.8825L12.045 19.0275L18.75 25.73V3.75C18.7499 3.45744 18.8524 3.17411 19.0397 2.94935C19.227 2.7246 19.4872 2.57266 19.775 2.52L20 2.5L19.775 2.52Z"
          fill="currentColor"/>
</svg>
