<svg viewBox="0 0 40 40" fill="none" xmlns="http://www.w3.org/2000/svg">
    <path d="M36.2536 7.91498L32.0853 3.74662C31.0898 2.75113 29.4703 2.75113 28.4748 3.74662L28.3231 3.89838C27.7816 3.66903 27.1953 3.54895 26.6054 3.54895H26.5504C24.5172 3.54895 22.7497 4.9648 22.2758 6.90474C21.5708 7.0926 21.0499 7.73623 21.0499 8.49938V9.04943H19.9498V8.49938C19.9498 7.73616 19.429 7.09258 18.724 6.90474C18.2501 4.96487 16.4826 3.54895 14.4494 3.54895H14.3944C13.8045 3.54895 13.2181 3.66903 12.6767 3.89838L12.5249 3.74662C11.5294 2.75113 9.90973 2.75113 8.91424 3.74662L4.74613 7.91498C3.75064 8.91047 3.75064 10.5302 4.74613 11.5254L6.8304 13.6097C6.93771 13.717 7.07866 13.7708 7.21937 13.7708C7.36007 13.7708 7.50102 13.717 7.60833 13.6097L9.16393 12.0541L9.94185 12.832L9.55313 13.2207C9.44976 13.3239 9.3918 13.4638 9.3918 13.6097C9.3918 13.7556 9.44976 13.8955 9.55289 13.9989L10.7888 15.2343C10.2984 15.7451 10.1044 16.482 10.2834 17.1693L12.738 26.5798C12.4362 26.8791 12.2491 27.2936 12.2491 27.7511V32.1515C12.2491 33.0613 12.9894 33.8016 13.8992 33.8016C14.8091 33.8016 15.5494 33.0613 15.5494 32.1515H16.6495C16.6495 32.6389 16.8621 33.0777 17.1995 33.38V34.0519C17.1995 35.1272 18.0742 36.0019 19.1495 36.0019H21.8502C22.9254 36.0019 23.8002 35.1272 23.8002 34.0519V33.38C24.1376 33.0777 24.3502 32.6389 24.3502 32.1515H25.4503C25.4503 33.0613 26.1907 33.8016 27.1005 33.8016C28.0103 33.8016 28.7506 33.0613 28.7506 32.1515V27.7511C28.7506 27.2936 28.5635 26.8792 28.2617 26.5801L30.7163 17.1695C30.8956 16.4822 30.7013 15.7453 30.2109 15.2345L31.4468 13.9992C31.55 13.896 31.6079 13.7561 31.6079 13.6102C31.6079 13.4643 31.55 13.3244 31.4468 13.2212L31.0581 12.8325L31.836 12.0546L33.3914 13.6099C33.4987 13.7173 33.6396 13.771 33.7803 13.771C33.921 13.771 34.062 13.7173 34.1693 13.6099L36.2536 11.5257C37.2491 10.5302 37.2491 8.91046 36.2536 7.91497L36.2536 7.91498ZM26.5502 4.64908H26.6052C26.8937 4.64908 27.1808 4.68836 27.4585 4.76277L26.3903 5.83093C26.1754 6.04579 26.1754 6.39399 26.3903 6.60886L27.9462 8.1647L27.1682 8.94263L26.7788 8.55318C26.6756 8.45004 26.5357 8.39209 26.3898 8.39209C26.244 8.39209 26.104 8.45004 26.0009 8.55318L24.7664 9.78811L24.6274 9.64913C24.541 9.56269 24.4479 9.48559 24.35 9.41683V8.49942C24.35 7.83175 23.9595 7.25863 23.3899 6.99857C23.8024 5.6303 25.0839 4.64908 26.5502 4.64908L26.5502 4.64908ZM22.1498 8.49941C22.1498 8.19615 22.3966 7.94936 22.6998 7.94936H22.7109C22.7138 7.94961 22.7168 7.94961 22.72 7.94985C23.0171 7.96017 23.2499 8.20155 23.2499 8.49941V9.05118L22.1498 9.04946V8.49941ZM17.7494 8.49941C17.7494 8.20155 17.9822 7.96017 18.2859 7.94936H18.2995C18.6027 7.94936 18.8495 8.19615 18.8495 8.49941V9.04946L17.7494 9.05118L17.7494 8.49941ZM14.3941 4.64908H14.4491C15.9153 4.64908 17.1969 5.6303 17.6094 6.99857C17.0397 7.25861 16.6493 7.83175 16.6493 8.49941V9.41708C16.5513 9.48559 16.4583 9.56294 16.3718 9.64938L16.2328 9.78836L14.9984 8.55342C14.8953 8.45029 14.7553 8.39234 14.6092 8.39234C14.4633 8.39234 14.3234 8.45029 14.2202 8.55367L13.8315 8.94238L13.0536 8.16446L14.6092 6.60886C14.8241 6.394 14.8241 6.0458 14.6092 5.83094L13.5408 4.76277C13.8185 4.68837 14.1056 4.64908 14.3941 4.64908L14.3941 4.64908ZM5.52357 10.7475C4.95707 10.181 4.95707 9.25917 5.52357 8.69265L9.69192 4.52429C9.9753 4.24092 10.3473 4.09948 10.7193 4.09948C11.0914 4.09948 11.4634 4.24117 11.7465 4.52429L11.886 4.66377L5.66286 10.8869L5.52357 10.7475ZM7.21891 12.4428L6.44098 11.6649L12.6641 5.44177L13.4421 6.2197L7.21891 12.4428ZM9.94117 11.2762L12.2752 8.94215L13.0531 9.72008L10.7191 12.0541L9.94117 11.2762ZM10.7193 13.6102L14.609 9.72058L15.4544 10.5663L11.565 14.4556L10.7193 13.6102ZM14.4489 32.1515C14.4489 32.4548 14.2021 32.7016 13.8988 32.7016C13.5956 32.7016 13.3488 32.4548 13.3488 32.1515V27.7512C13.3488 27.4479 13.5956 27.2011 13.8988 27.2011C14.2021 27.2011 14.4489 27.4479 14.4489 27.7512V32.1515ZM16.6491 31.0514H15.549V28.8512H16.6491V31.0514ZM17.7492 32.1515V27.7512C17.7492 27.4479 17.9959 27.2011 18.2992 27.2011C18.6025 27.2011 18.8492 27.4479 18.8492 27.7512V32.1515C18.8492 32.4548 18.6025 32.7016 18.2992 32.7016C17.9959 32.7016 17.7492 32.4548 17.7492 32.1515ZM22.6996 34.0519C22.6996 34.5204 22.3182 34.9018 21.8497 34.9018H19.149C18.6805 34.9018 18.2991 34.5204 18.2991 34.0519V33.8016C19.2089 33.8016 19.9493 33.0613 19.9493 32.1515H21.0494C21.0494 33.0613 21.7897 33.8016 22.6995 33.8016L22.6996 34.0519ZM19.9493 31.0514V28.8512H21.0494V31.0514H19.9493ZM23.2496 32.1515C23.2496 32.4548 23.0028 32.7016 22.6996 32.7016C22.3963 32.7016 22.1495 32.4548 22.1495 32.1515V27.7512C22.1495 27.4479 22.3963 27.2011 22.6996 27.2011C23.0028 27.2011 23.2496 27.4479 23.2496 27.7512V32.1515ZM25.4498 31.0514H24.3497V28.8512H25.4498V31.0514ZM27.65 32.1515C27.65 32.4548 27.4032 32.7016 27.1 32.7016C26.7967 32.7016 26.5499 32.4548 26.5499 32.1515V27.7512C26.5499 27.4479 26.7967 27.2011 27.1 27.2011C27.4032 27.2011 27.65 27.4479 27.65 27.7512V32.1515ZM29.6513 16.8916L27.2473 26.1079C27.1989 26.1037 27.1496 26.101 27.1 26.101C26.1902 26.101 25.4498 26.8414 25.4498 27.7512H24.3497C24.3497 26.8414 23.6094 26.101 22.6996 26.101C21.7898 26.101 21.0495 26.8414 21.0495 27.7512H19.9494C19.9494 26.8414 19.209 26.101 18.2992 26.101C17.3894 26.101 16.6491 26.8414 16.6491 27.7512H15.549C15.549 26.8414 14.8086 26.101 13.8988 26.101C13.8492 26.101 13.7999 26.1037 13.7512 26.1079L11.3473 16.8916C11.2628 16.5675 11.3573 16.2188 11.5938 15.9823L17.1493 10.4268C17.3283 10.2478 17.566 10.1494 17.8191 10.1494H23.1794C23.4324 10.1494 23.6703 10.2481 23.8493 10.4268L29.4048 15.9823C29.6415 16.219 29.736 16.5675 29.6513 16.8916H29.6513ZM29.4337 14.4555L25.5444 10.5661L26.3898 9.72014L30.2797 13.61L29.4337 14.4555ZM30.2799 12.0544L27.9459 9.72039L28.7238 8.94247L31.0579 11.2765L30.2799 12.0544ZM33.7799 12.4426L27.5567 6.2195L28.3347 5.44157L34.5578 11.6647L33.7799 12.4426ZM35.4752 10.7473L35.3357 10.8868L29.1126 4.66363L29.2521 4.52415C29.8186 3.95766 30.7404 3.95766 31.3069 4.52415L35.4753 8.69251C36.0418 9.25926 36.0418 10.1811 35.4753 10.7474L35.4752 10.7473Z"
          fill="currentColor"/>
    <path d="M25.2774 15.3552C25.3081 15.1728 25.3282 14.9874 25.3356 14.7995C25.3798 13.6474 24.9729 12.547 24.1896 11.7011C23.4063 10.8551 22.3403 10.3647 21.1882 10.3205C20.0363 10.2771 18.9357 10.6832 18.0897 11.4665C17.3825 12.1214 16.9251 12.9742 16.7677 13.9096L13.5421 18.957C13.3395 19.2747 13.2324 19.6419 13.2324 20.0185C13.2324 20.4898 13.4011 20.9458 13.7071 21.3033C13.7088 21.3053 13.7108 21.3075 13.7125 21.3095L13.7488 21.3507C13.751 21.3532 13.753 21.3556 13.7555 21.3578C13.7771 21.3814 13.7989 21.4043 13.8215 21.4259C14.2011 21.8003 14.6981 21.9956 15.2028 21.9956C15.5205 21.9956 15.8415 21.9182 16.1379 21.7593L19.4698 19.9746L22.3917 24.8833C22.8534 25.66 23.6708 26.1025 24.5256 26.1025C24.8323 26.1025 25.1439 26.0455 25.4454 25.9264C26.4024 25.5485 27.0207 24.6397 27.0207 23.6113C27.0207 23.4323 27.0016 23.2533 26.9635 23.0795L25.2774 15.3552ZM15.342 20.643C15.2342 20.743 15.0932 20.7948 14.9471 20.7891C14.802 20.7835 14.6677 20.7221 14.5682 20.6165L14.5559 20.6027C14.5469 20.5924 14.5378 20.5821 14.5297 20.5713C14.5292 20.5706 14.5287 20.5698 14.5282 20.5693C14.3612 20.3469 14.3863 20.0289 14.5947 19.8361C14.7003 19.7384 14.8344 19.69 14.9682 19.69C15.1163 19.69 15.2639 19.7492 15.3719 19.8661C15.4719 19.9739 15.5237 20.1141 15.518 20.2609C15.5124 20.4075 15.4498 20.5433 15.342 20.643H15.342ZM16.6179 20.2545C16.6221 19.8317 16.4676 19.43 16.1791 19.1184C15.8905 18.8068 15.5016 18.6218 15.0797 18.5936L16.8652 15.7997C17.0471 16.4516 17.3818 17.0555 17.855 17.5664C17.9851 17.7069 18.1236 17.8365 18.2683 17.9571L18.9062 19.0287L16.6179 20.2545ZM18.6624 16.819C18.0787 16.1886 17.7754 15.3687 17.8083 14.5102C17.8412 13.6518 18.2066 12.8576 18.8369 12.2739C19.4363 11.719 20.2069 11.4174 21.0192 11.4174C21.0612 11.4174 21.1034 11.4182 21.1457 11.4199C22.0041 11.4528 22.7983 11.8182 23.382 12.4485C23.9656 13.0788 24.2689 13.8988 24.236 14.7573C24.2031 15.6157 23.8377 16.4099 23.2074 16.9935C22.5771 17.5772 21.7566 17.8805 20.8986 17.8476C20.0402 17.8147 19.2458 17.4493 18.6624 16.819L18.6624 16.819ZM22.5927 23.0711L20.4402 19.4551L21.4156 18.9328C22.361 18.8483 23.2469 18.4566 23.9549 17.8012C24.1747 17.5977 24.3699 17.3747 24.5401 17.1365L25.5783 21.8935C25.0474 21.6423 24.4178 21.6017 23.8295 21.834C23.2414 22.0658 22.8092 22.525 22.5928 23.0712L22.5927 23.0711ZM25.6462 24.318C25.5291 24.5877 25.3142 24.7954 25.0409 24.9035C24.4769 25.1259 23.8365 24.8482 23.6138 24.2842C23.391 23.7199 23.669 23.0797 24.233 22.857C24.3652 22.8047 24.5014 22.7801 24.6355 22.7801C25.0741 22.7801 25.4896 23.0443 25.6602 23.4765C25.7683 23.7496 25.7634 24.0487 25.6462 24.3181L25.6462 24.318Z"
          fill="currentColor"/>
</svg>
