<svg viewBox="0 0 40 40" fill="none" xmlns="http://www.w3.org/2000/svg">
    <path d="M32.0875 21.1971C31.1665 20.6923 29.8227 20.2885 28.0259 20C29.8227 19.7115 31.1665 19.3077 32.0875 18.8029C33.1611 18.1739 33.9352 17.1694 34.2448 16.0033C34.5545 14.8372 34.3753 13.6017 33.7454 12.56C33.1154 11.5183 32.0846 10.7526 30.8724 10.4262C29.6603 10.0998 28.3626 10.2384 27.2559 10.8125C26.3348 11.3173 25.293 12.2404 24.1455 13.5673C24.7646 11.9375 25.0816 10.6106 25.0816 9.61538C25.0816 8.39131 24.5726 7.21737 23.6665 6.35181C22.7604 5.48626 21.5314 5 20.25 5C18.9686 5 17.7396 5.48626 16.8335 6.35181C15.9274 7.21737 15.4184 8.39131 15.4184 9.61538C15.4184 10.6106 15.7354 11.9375 16.3545 13.5673C15.207 12.2404 14.1652 11.3173 13.2441 10.8125C12.1374 10.2384 10.8397 10.0998 9.62755 10.4262C8.41539 10.7526 7.38456 11.5183 6.75465 12.56C6.12473 13.6017 5.94552 14.8372 6.25518 16.0033C6.56485 17.1694 7.33892 18.1739 8.4125 18.8029C9.33353 19.3077 10.6773 19.7115 12.4741 20C10.6773 20.2885 9.33353 20.6923 8.4125 21.1971C7.49122 21.7061 6.77166 22.4915 6.36556 23.4312C5.95946 24.371 5.88954 25.4125 6.16666 26.3941C6.44378 27.3757 7.05243 28.2424 7.8981 28.8596C8.74376 29.4769 9.77913 29.8102 10.8434 29.8077C11.6869 29.8066 12.5151 29.5927 13.2441 29.1875C14.1652 28.6827 15.207 27.7596 16.3545 26.4327C15.7354 28.0625 15.4184 29.3894 15.4184 30.3846C15.4184 31.6087 15.9274 32.7826 16.8335 33.6482C17.7396 34.5137 18.9686 35 20.25 35C21.5314 35 22.7604 34.5137 23.6665 33.6482C24.5726 32.7826 25.0816 31.6087 25.0816 30.3846C25.0816 29.3894 24.7646 28.0625 24.1455 26.4327C25.293 27.7596 26.3348 28.6827 27.2559 29.1875C27.9849 29.5927 28.8131 29.8066 29.6566 29.8077C30.7209 29.8102 31.7562 29.4769 32.6019 28.8596C33.4476 28.2424 34.0562 27.3757 34.3333 26.3941C34.6105 25.4125 34.5405 24.371 34.1344 23.4312C33.7283 22.4915 33.0088 21.7061 32.0875 21.1971V21.1971ZM20.25 23.4615C19.5333 23.4615 18.8327 23.2585 18.2368 22.8782C17.6408 22.4978 17.1764 21.9572 16.9021 21.3247C16.6278 20.6922 16.5561 19.9962 16.6959 19.3247C16.8357 18.6532 17.1809 18.0364 17.6876 17.5523C18.1944 17.0682 18.8401 16.7385 19.543 16.605C20.246 16.4714 20.9746 16.54 21.6367 16.802C22.2989 17.064 22.8648 17.5076 23.263 18.0769C23.6612 18.6461 23.8737 19.3154 23.8737 20C23.8698 20.9169 23.4867 21.7951 22.808 22.4435C22.1292 23.0918 21.2098 23.4577 20.25 23.4615ZM27.8598 11.8077C28.6928 11.3487 29.6825 11.2245 30.6112 11.4625C31.54 11.7006 32.3317 12.2813 32.8122 13.0769C33.2928 13.8726 33.4228 14.818 33.1736 15.7052C32.9244 16.5924 32.3165 17.3487 31.4835 17.8077C30.2907 18.4567 28.0712 18.9327 25.0061 19.2067C24.8145 18.1326 24.225 17.16 23.3453 16.4663C25.1118 14.0721 26.667 12.4567 27.8598 11.8077V11.8077ZM20.25 6.15385C21.2098 6.15764 22.1292 6.52356 22.808 7.1719C23.4867 7.82025 23.8698 8.6985 23.8737 9.61538C23.8737 10.9135 23.1943 13.0048 21.9109 15.6731C20.8401 15.2891 19.6599 15.2891 18.5891 15.6731C17.3057 13.0048 16.6263 10.9135 16.6263 9.61538C16.6302 8.6985 17.0133 7.82025 17.692 7.1719C18.3708 6.52356 19.2902 6.15764 20.25 6.15385V6.15385ZM7.70285 13.0769C7.93914 12.6833 8.25448 12.3381 8.63076 12.0611C9.00705 11.7841 9.43688 11.5808 9.8956 11.4629C10.3543 11.345 10.8329 11.3147 11.3039 11.3739C11.7749 11.4331 12.229 11.5805 12.6402 11.8077C13.833 12.4567 15.3882 14.0721 17.1547 16.4663C16.275 17.16 15.6855 18.1326 15.4939 19.2067C12.4288 18.9327 10.2093 18.4567 9.01645 17.8077C8.18567 17.3466 7.5806 16.5892 7.33427 15.7021C7.08793 14.815 7.22051 13.8707 7.70285 13.0769V13.0769ZM12.6402 28.1923C11.8072 28.6513 10.8175 28.7755 9.88878 28.5375C8.96002 28.2994 8.16829 27.7187 7.68775 26.9231C7.20721 26.1274 7.07724 25.182 7.32642 24.2948C7.5756 23.4076 8.18352 22.6513 9.01645 22.1923C10.2093 21.5433 12.4288 21.0673 15.4939 20.7933C15.6855 21.8674 16.275 22.84 17.1547 23.5337C15.3882 25.9279 13.833 27.5433 12.6402 28.1923ZM20.25 33.8462C19.2902 33.8424 18.3708 33.4764 17.692 32.8281C17.0133 32.1798 16.6302 31.3015 16.6263 30.3846C16.6263 29.0865 17.3057 26.9952 18.5891 24.3269C19.6599 24.7109 20.8401 24.7109 21.9109 24.3269C23.1943 26.9952 23.8737 29.0865 23.8737 30.3846C23.8698 31.3015 23.4867 32.1798 22.808 32.8281C22.1292 33.4764 21.2098 33.8424 20.25 33.8462ZM32.7972 26.9231C32.5609 27.3167 32.2455 27.6619 31.8692 27.9389C31.493 28.2159 31.0631 28.4192 30.6044 28.5371C30.1457 28.655 29.6671 28.6853 29.1961 28.6261C28.7251 28.5669 28.271 28.4195 27.8598 28.1923C26.667 27.5433 25.1118 25.9279 23.3453 23.5337C24.225 22.84 24.8145 21.8674 25.0061 20.7933C28.0712 21.0673 30.2907 21.5433 31.4835 22.1923C32.3143 22.6534 32.9194 23.4108 33.1657 24.2979C33.4121 25.185 33.2795 26.1293 32.7972 26.9231V26.9231Z"
          fill="currentColor"/>
</svg>
