<svg viewBox="0 0 40 40" fill="none" xmlns="http://www.w3.org/2000/svg">
    <path fill-rule="evenodd" clip-rule="evenodd"
          d="M15.715 14.9485H21.905V18.0318C22.7967 16.2585 25.0833 14.6652 28.5183 14.6652C35.1033 14.6652 36.6667 18.1952 36.6667 24.6718V36.6668H30V26.1468C30 22.4585 29.1083 20.3785 26.8383 20.3785C23.69 20.3785 22.3817 22.6202 22.3817 26.1452V36.6668H15.715V14.9485ZM4.28333 36.3835H10.95V14.6652H4.28333V36.3835ZM11.905 7.5835C11.9052 8.14229 11.7944 8.69555 11.579 9.21114C11.3635 9.72673 11.0478 10.1944 10.65 10.5868C9.844 11.3879 8.75302 11.8363 7.61667 11.8335C6.48232 11.8327 5.39385 11.3855 4.58667 10.5885C4.19035 10.1947 3.87564 9.72654 3.66057 9.21088C3.4455 8.69523 3.3343 8.1422 3.33333 7.5835C3.33333 6.45516 3.78333 5.37516 4.58833 4.5785C5.39481 3.78043 6.48373 3.333 7.61833 3.3335C8.755 3.3335 9.845 3.78183 10.65 4.5785C11.4533 5.37516 11.905 6.45516 11.905 7.5835Z"
          fill="currentColor"/>
</svg>
