<svg viewBox="0 0 169 169" fill="none" xmlns="http://www.w3.org/2000/svg">
    <path d="M102.742 159.907L104.125 166.759L103.452 166.895L102.189 160.642L98.2426 161.443L98.1218 160.845L102.742 159.907Z"
          fill="currentColor"/>
    <path d="M18.4443 131.442C18.0869 131.674 17.6986 131.839 17.2794 131.939C16.8513 132.036 16.4206 132.057 15.9874 132.002C15.5487 131.95 15.1349 131.804 14.7462 131.563C14.3519 131.326 14.0127 130.987 13.7286 130.546C13.3912 130.022 13.2245 129.497 13.2285 128.971C13.2234 128.443 13.3511 127.97 13.6114 127.551L14.1849 127.824C14.0081 128.118 13.9076 128.41 13.8835 128.699C13.8538 128.992 13.877 129.27 13.9531 129.533C14.0256 129.791 14.1311 130.027 14.2696 130.243C14.4969 130.595 14.7691 130.861 15.0861 131.038C15.3977 131.219 15.7321 131.327 16.0893 131.362C16.4375 131.394 16.7875 131.363 17.1394 131.268C17.4857 131.176 17.8074 131.034 18.1044 130.842C18.4289 130.632 18.7041 130.376 18.93 130.073C19.156 129.77 19.3205 129.445 19.4236 129.097C19.5212 128.753 19.5535 128.403 19.5206 128.05C19.4785 127.694 19.3563 127.359 19.1538 127.045C19.0117 126.824 18.8276 126.623 18.6014 126.441C18.3753 126.26 18.1185 126.121 17.8312 126.026C17.5402 125.925 17.2292 125.896 16.8981 125.939L16.8366 125.299C17.2062 125.231 17.5745 125.258 17.9413 125.38C18.3082 125.502 18.6451 125.686 18.952 125.933C19.2554 126.174 19.503 126.444 19.6948 126.741C19.9541 127.144 20.1068 127.569 20.153 128.015C20.1937 128.466 20.1509 128.907 20.0248 129.341C19.8896 129.772 19.6859 130.17 19.4136 130.533C19.1359 130.901 18.8128 131.204 18.4443 131.442Z"
          fill="currentColor"/>
    <path d="M13.9454 116.262C14.1411 116.714 14.2285 117.163 14.2075 117.608C14.1866 118.054 14.0804 118.476 13.889 118.874C13.6916 119.275 13.4321 119.632 13.1104 119.944C12.7828 120.258 12.4148 120.504 12.0065 120.682C11.5802 120.868 11.1423 120.969 10.6928 120.986C10.2373 121.006 9.80068 120.946 9.38304 120.805C8.95678 120.662 8.577 120.445 8.2437 120.153C7.90439 119.864 7.6421 119.506 7.45683 119.079C7.26112 118.627 7.17675 118.178 7.2037 117.729C7.23066 117.281 7.34414 116.859 7.54416 116.464C7.74157 116.063 8.0011 115.707 8.32275 115.395C8.64439 115.083 9.00636 114.84 9.40865 114.664C9.83496 114.479 10.2759 114.376 10.7314 114.356C11.1809 114.339 11.6175 114.4 12.0411 114.537C12.4588 114.677 12.8342 114.893 13.1675 115.184C13.5008 115.476 13.7601 115.835 13.9454 116.262ZM11.7325 120.05C12.0808 119.898 12.3922 119.695 12.6669 119.439C12.9355 119.186 13.1503 118.899 13.3111 118.579C13.466 118.261 13.5558 117.924 13.5807 117.57C13.5969 117.212 13.5293 116.859 13.378 116.51C13.2188 116.142 13.0015 115.847 12.7262 115.623C12.4422 115.397 12.1298 115.236 11.7889 115.141C11.4394 115.043 11.082 115.009 10.7168 115.039C10.3516 115.069 10.0039 115.156 9.67364 115.3C9.32539 115.452 9.01694 115.654 8.74829 115.907C8.47964 116.161 8.2662 116.45 8.10796 116.777C7.94711 117.098 7.85726 117.434 7.83841 117.785C7.81956 118.137 7.88581 118.488 8.03716 118.837C8.19373 119.198 8.411 119.493 8.68897 119.723C8.96433 119.947 9.27677 120.107 9.62629 120.206C9.96719 120.3 10.3215 120.336 10.6894 120.311C11.0546 120.281 11.4023 120.194 11.7325 120.05Z"
          fill="currentColor"/>
    <path d="M3.39434 108.068L8.71873 104.146L2.17938 103.227L2.00445 102.53L9.47059 103.632L9.62395 104.243L3.56927 108.765L3.39434 108.068Z"
          fill="currentColor"/>
    <path d="M6.60586 90.0239L7.21183 89.9645L7.66769 94.6387L0.728405 95.3191L0.28114 90.733L0.887106 90.6736L1.26747 94.5737L3.76952 94.3284L3.4379 90.9281L4.01454 90.8715L4.34617 94.2719L6.99483 94.0122L6.60586 90.0239Z"
          fill="currentColor"/>
    <path d="M6.96311 83.4427L0 83.0824L0.151849 80.1325C0.167371 79.831 0.243656 79.5589 0.380703 79.3162C0.517751 79.0736 0.698878 78.866 0.924084 78.6937C1.14309 78.5144 1.38589 78.3823 1.65247 78.2975C1.91286 78.2058 2.17709 78.1669 2.44515 78.1808C2.77859 78.1981 3.08905 78.2799 3.37652 78.4262C3.66432 78.566 3.90349 78.7591 4.09403 79.0056C4.2849 79.2455 4.40493 79.5245 4.45411 79.8425L7.22936 78.2706L7.18937 79.0474L4.53535 80.5566L4.42906 82.6215L6.99855 82.7544L6.96311 83.4427ZM3.82101 82.59L3.93844 80.3088C3.95261 80.0335 3.88974 79.7903 3.74983 79.5793C3.60991 79.3683 3.42186 79.2008 3.18569 79.0769C2.94298 78.9526 2.68432 78.8833 2.40972 78.8691C2.12858 78.8546 1.86695 78.9068 1.62483 79.0257C1.3765 79.1377 1.17485 79.2982 1.01988 79.5071C0.858705 79.709 0.771369 79.9411 0.757871 80.2033L0.643478 82.4256L3.82101 82.59Z"
          fill="currentColor"/>
    <path d="M5.36197 58.6527C5.22683 58.7143 5.09941 58.7953 4.97973 58.8959C4.8538 58.9946 4.73559 59.1128 4.62513 59.2505C4.51466 59.3883 4.41288 59.5424 4.3198 59.7129C4.22863 59.8771 4.15242 60.0597 4.09116 60.2606C3.91311 60.8443 3.89467 61.3089 4.03582 61.6541C4.17262 61.9912 4.43197 62.2183 4.81387 62.3354C5.07682 62.416 5.30257 62.4166 5.49111 62.3371C5.68157 62.2514 5.86587 62.0848 6.04402 61.8374C6.22216 61.59 6.42641 61.2682 6.65676 60.8721C6.90243 60.4258 7.14678 60.0511 7.38981 59.7481C7.63284 59.4451 7.90202 59.2359 8.19736 59.1205C8.48644 59.0032 8.83132 59.006 9.232 59.1288C9.53877 59.2229 9.78667 59.3641 9.97568 59.5524C10.1647 59.7408 10.3018 59.9647 10.3869 60.2242C10.4721 60.4837 10.5073 60.7725 10.4924 61.0905C10.4713 61.4067 10.4071 61.7405 10.2999 62.092C10.1946 62.4373 10.0587 62.7594 9.89224 63.0584C9.72139 63.3492 9.52402 63.6148 9.30013 63.855C9.06999 64.0933 8.80802 64.3013 8.51424 64.4789L8.07946 63.9853C8.24105 63.9044 8.40307 63.7996 8.56554 63.671C8.72366 63.5341 8.87718 63.3787 9.02609 63.2047C9.17692 63.0244 9.31279 62.8258 9.43371 62.6089C9.55028 62.3839 9.64686 62.1458 9.72343 61.8947C9.88616 61.3611 9.91547 60.9171 9.81137 60.5626C9.70918 60.2018 9.46714 59.9628 9.08524 59.8457C8.80977 59.7613 8.56767 59.7694 8.35895 59.8702C8.14396 59.969 7.93731 60.1527 7.73898 60.4214C7.54066 60.6901 7.32441 61.0288 7.09023 61.4374C6.84213 61.8693 6.60352 62.2252 6.37441 62.505C6.1453 62.7848 5.89942 62.9737 5.63679 63.0716C5.3698 63.1614 5.05788 63.1515 4.70102 63.0421C4.28782 62.9154 3.97098 62.7085 3.75051 62.4212C3.5257 62.1258 3.39586 61.7771 3.36098 61.3752C3.31985 60.9713 3.37012 60.5371 3.51179 60.0726C3.60176 59.7776 3.71634 59.5141 3.85553 59.2823C3.99037 59.0422 4.14668 58.8327 4.32446 58.6538C4.50416 58.4687 4.70724 58.3079 4.93371 58.1714L5.36197 58.6527Z"
          fill="currentColor"/>
    <path d="M9.83858 52.5026C9.45463 52.3186 9.11059 52.0737 8.80645 51.768C8.49924 51.4534 8.25569 51.0967 8.07582 50.6977C7.89004 50.2958 7.79746 49.8659 7.79809 49.4079C7.79281 48.947 7.90309 48.4797 8.12891 48.0059C8.39708 47.4433 8.75569 47.0258 9.20473 46.7535C9.65068 46.4725 10.1197 46.3335 10.6117 46.3364L10.68 46.9693C10.3375 46.9725 10.0371 47.0396 9.77878 47.1704C9.51458 47.2985 9.29059 47.464 9.10679 47.6669C8.92581 47.8639 8.78028 48.0779 8.67019 48.3089C8.48953 48.6879 8.40683 49.0593 8.42209 49.4231C8.43145 49.7841 8.51514 50.1261 8.67316 50.4492C8.8281 50.7635 9.03811 51.046 9.30319 51.2967C9.56237 51.5445 9.85145 51.7449 10.1704 51.8977C10.5189 52.0647 10.8809 52.1654 11.2563 52.1997C11.6318 52.2341 11.9944 52.2041 12.3441 52.1098C12.6879 52.0126 13.0014 51.8573 13.2845 51.6438C13.5646 51.4215 13.7851 51.1416 13.946 50.804C14.0589 50.5671 14.1333 50.3045 14.1692 50.0161C14.2051 49.7277 14.1881 49.4359 14.1185 49.1406C14.0516 48.8394 13.9134 48.5585 13.7037 48.2981L14.2151 47.9102C14.4661 48.1905 14.636 48.5192 14.7247 48.8963C14.8134 49.2735 14.8334 49.6578 14.7847 50.0491C14.7389 50.4345 14.6397 50.7872 14.4873 51.107C14.2812 51.5393 14.0005 51.8923 13.6452 52.1658C13.284 52.4365 12.8863 52.6315 12.4521 52.7509C12.0148 52.8614 11.5704 52.8958 11.1187 52.854C10.661 52.8093 10.2344 52.6922 9.83858 52.5026Z"
          fill="currentColor"/>
    <path d="M18.7531 43.012L12.9971 39.0668L14.6597 36.6283C14.8297 36.3791 15.0362 36.1867 15.2793 36.0511C15.5224 35.9156 15.7848 35.8331 16.0666 35.8036C16.3467 35.765 16.6226 35.7791 16.8942 35.846C17.1641 35.9038 17.4098 36.0086 17.6314 36.1605C17.9071 36.3494 18.1295 36.5814 18.2989 36.8565C18.4719 37.1262 18.5756 37.4159 18.6102 37.7259C18.6484 38.0304 18.6059 38.3312 18.4826 38.6283L21.6682 38.7365L21.2304 39.3786L18.1808 39.2802L17.017 40.9872L19.141 42.443L18.7531 43.012ZM16.5144 40.6427L17.8001 38.7569C17.9553 38.5293 18.028 38.2889 18.0182 38.0357C18.0085 37.7826 17.935 37.5414 17.7978 37.3122C17.6553 37.0793 17.4705 36.8851 17.2435 36.7295C17.0111 36.5702 16.7607 36.4781 16.4922 36.4531C16.222 36.419 15.9665 36.4506 15.7257 36.5479C15.4832 36.6361 15.288 36.7886 15.1402 37.0054L13.8877 38.8423L16.5144 40.6427Z"
          fill="currentColor"/>
    <path d="M27.7899 31.3551C27.4505 31.7109 27.0718 31.9654 26.6539 32.1187C26.2359 32.272 25.8067 32.3373 25.3663 32.3146C24.9212 32.2874 24.4929 32.1856 24.0815 32.0091C23.6654 31.828 23.2965 31.5833 22.9747 31.2748C22.6388 30.9526 22.376 30.5871 22.1863 30.1782C21.9919 29.7647 21.8782 29.3378 21.8453 28.8975C21.8121 28.4479 21.865 28.0126 22.0038 27.5917C22.1379 27.1662 22.3655 26.785 22.6868 26.4482C23.0262 26.0925 23.4072 25.8402 23.8299 25.6915C24.2526 25.5427 24.6842 25.4844 25.1248 25.5163C25.57 25.5435 25.9982 25.6453 26.4097 25.8218C26.8211 25.9983 27.1853 26.2386 27.5023 26.5425C27.8382 26.8647 28.1034 27.2325 28.2978 27.6459C28.4875 28.0549 28.6011 28.4818 28.6388 28.9266C28.6718 29.3669 28.6188 29.7976 28.48 30.2185C28.3412 30.6394 28.1112 31.0183 27.7899 31.3551ZM23.4498 30.7767C23.7243 31.0398 24.0322 31.2488 24.3737 31.4036C24.7104 31.554 25.0573 31.6414 25.4144 31.6659C25.7668 31.6859 26.1107 31.6387 26.4462 31.5244C26.7815 31.4009 27.0803 31.2015 27.3428 30.9264C27.6188 30.637 27.8063 30.3218 27.9052 29.9807C28.0039 29.6303 28.0308 29.2791 27.9859 28.9273C27.9409 28.5662 27.8337 28.2227 27.6644 27.8969C27.495 27.571 27.2803 27.2834 27.02 27.0338C26.7456 26.7707 26.44 26.564 26.1033 26.4136C25.7666 26.2633 25.4174 26.1783 25.0558 26.1585C24.6987 26.134 24.3548 26.1811 24.024 26.3C23.6933 26.4188 23.3967 26.6158 23.1342 26.8909C22.8627 27.1755 22.6753 27.4908 22.5718 27.8366C22.4729 28.1777 22.446 28.5289 22.4911 28.89C22.5359 29.2418 22.6408 29.583 22.8055 29.9136C22.9749 30.2394 23.1896 30.5271 23.4498 30.7767Z"
          fill="currentColor"/>
    <path d="M35.4552 24.0139L31.241 18.4447L31.7886 18.0281L35.6349 23.111L38.8425 20.671L39.2105 21.1574L35.4552 24.0139Z"
          fill="currentColor"/>
    <path d="M44.6009 17.5594L41.2288 11.4407L41.8305 11.1074L44.9081 16.6918L48.4322 14.7394L48.7267 15.2737L44.6009 17.5594Z"
          fill="currentColor"/>
    <path d="M64.7014 2.47823L62.3032 3.12927L63.9663 9.28772L63.3028 9.46785L61.6397 3.3094L59.2415 3.96044L59.0824 3.37121L64.5422 1.889L64.7014 2.47823Z"
          fill="currentColor"/>
    <path d="M75.2817 7.09338C74.7934 7.14536 74.3403 7.09457 73.9225 6.94102C73.5046 6.78747 73.1348 6.5595 72.8131 6.2571C72.4907 5.94817 72.2293 5.59314 72.0288 5.19203C71.8277 4.78438 71.7036 4.35863 71.6566 3.91477C71.6075 3.45134 71.6422 3.00208 71.7607 2.56701C71.8786 2.12541 72.0667 1.72583 72.3251 1.36828C72.5893 1.00351 72.91 0.705347 73.287 0.473783C73.6634 0.235693 74.0827 0.0920467 74.545 0.0428455C75.0332 -0.00912764 75.4867 0.0449235 75.9052 0.204999C76.3238 0.365074 76.691 0.599922 77.0069 0.909545C77.3292 1.21847 77.5907 1.5735 77.7912 1.97461C77.9916 2.37573 78.115 2.79495 78.1613 3.23228C78.2104 3.69572 78.176 4.14824 78.0582 4.58984C77.9397 5.02491 77.7516 5.42449 77.4939 5.78857C77.2355 6.14612 76.9177 6.44067 76.5406 6.67224C76.1636 6.9038 75.7439 7.04418 75.2817 7.09338ZM72.3401 3.84201C72.3802 4.2206 72.4808 4.57954 72.6418 4.91885C72.8021 5.25163 73.0107 5.54297 73.2676 5.79286C73.5238 6.03623 73.8168 6.22287 74.1466 6.35279C74.4822 6.47549 74.8388 6.51674 75.2164 6.47655C75.6135 6.43428 75.9596 6.31492 76.2549 6.11848C76.5559 5.91481 76.8026 5.66412 76.9949 5.36641C77.193 5.06149 77.3324 4.72981 77.4129 4.37139C77.4935 4.01297 77.5147 3.65426 77.4767 3.29526C77.4366 2.91667 77.3364 2.56099 77.1761 2.22821C77.0158 1.89543 76.8039 1.60444 76.5405 1.35524C76.2836 1.10534 75.9907 0.9187 75.6616 0.795307C75.3325 0.671915 74.9792 0.630314 74.6016 0.670507C74.2109 0.712085 73.8648 0.831444 73.5631 1.02858C73.2678 1.22503 73.0212 1.47572 72.823 1.78064C72.6307 2.07835 72.491 2.40676 72.404 2.76588C72.3234 3.1243 72.3021 3.48301 72.3401 3.84201Z"
          fill="currentColor"/>
    <path d="M93.3177 6.90286L94.4193 0L96.7562 0.37489C97.4867 0.492075 98.0696 0.745114 98.5048 1.13401C98.9475 1.51746 99.2498 1.99139 99.4116 2.5558C99.5745 3.11373 99.6053 3.71029 99.5039 4.34549C99.3922 5.04549 99.1593 5.63298 98.805 6.10795C98.4572 6.58396 98.0117 6.92463 97.4684 7.12997C96.9316 7.33634 96.327 7.3856 95.6547 7.27775L93.3177 6.90286ZM98.8252 4.2366C98.9131 3.68567 98.8877 3.17971 98.7491 2.71875C98.617 2.25882 98.3761 1.87783 98.0265 1.57579C97.6779 1.26727 97.2225 1.0679 96.66 0.977675L95.0019 0.711674L94.0927 6.40896L95.7509 6.67496C96.3197 6.76622 96.8183 6.71657 97.2465 6.52601C97.6747 6.33546 98.0232 6.04236 98.2918 5.64672C98.5615 5.24461 98.7393 4.77457 98.8252 4.2366Z"
          fill="currentColor"/>
    <path d="M105.708 9.42846L107.66 2.71716L108.32 2.91005L106.368 9.62135L105.708 9.42846Z" fill="currentColor"/>
    <path d="M118.072 7.85219C118.025 7.71112 117.957 7.57576 117.87 7.44613C117.785 7.31044 117.68 7.18048 117.554 7.05624C117.429 6.932 117.286 6.81476 117.127 6.70451C116.973 6.59681 116.8 6.50215 116.607 6.42054C116.046 6.18336 115.586 6.11753 115.229 6.22306C114.881 6.32509 114.629 6.56057 114.474 6.92952C114.367 7.18355 114.344 7.40864 114.403 7.60481C114.469 7.80352 114.615 8.00435 114.843 8.20729C115.07 8.41023 115.368 8.6468 115.738 8.91699C116.156 9.20759 116.502 9.48955 116.778 9.76288C117.054 10.0362 117.234 10.326 117.318 10.6324C117.405 10.9327 117.367 11.2764 117.205 11.6635C117.08 11.9598 116.914 12.1927 116.708 12.3619C116.502 12.5312 116.266 12.6451 116 12.7035C115.734 12.762 115.444 12.7676 115.129 12.7203C114.818 12.667 114.493 12.5689 114.155 12.4261C113.824 12.2858 113.518 12.1174 113.238 11.9208C112.967 11.7207 112.724 11.4967 112.508 11.2489C112.295 10.995 112.116 10.7125 111.97 10.4013L112.504 10.0181C112.567 10.1875 112.655 10.3598 112.766 10.535C112.886 10.7067 113.024 10.8757 113.182 11.0419C113.345 11.2108 113.528 11.3666 113.731 11.5093C113.942 11.6486 114.169 11.7692 114.41 11.8712C114.923 12.088 115.36 12.1626 115.723 12.0949C116.091 12.0299 116.353 11.8128 116.508 11.4439C116.62 11.1778 116.637 10.9355 116.558 10.717C116.482 10.4925 116.321 10.2676 116.074 10.0424C115.828 9.81716 115.514 9.56689 115.133 9.29159C114.729 9.00005 114.401 8.72574 114.147 8.46866C113.892 8.21157 113.73 7.94706 113.66 7.67511C113.598 7.39966 113.639 7.08956 113.784 6.74481C113.952 6.34562 114.19 6.05074 114.498 5.86018C114.814 5.66612 115.173 5.57222 115.575 5.57848C115.98 5.57869 116.406 5.67315 116.852 5.86188C117.136 5.98174 117.385 6.12292 117.601 6.28542C117.826 6.44442 118.018 6.62171 118.177 6.81729C118.342 7.01542 118.481 7.23439 118.593 7.4742L118.072 7.85219Z"
          fill="currentColor"/>
    <path d="M123.717 12.9455C123.939 12.5813 124.217 12.2632 124.551 11.991C124.895 11.7167 125.274 11.5103 125.688 11.3716C126.106 11.2273 126.542 11.1789 126.996 11.2263C127.454 11.2681 127.906 11.4258 128.353 11.6994C128.884 12.0243 129.262 12.4246 129.486 12.9003C129.719 13.3737 129.809 13.8557 129.756 14.3461L129.121 14.3497C129.153 14.0077 129.117 13.7012 129.014 13.4302C128.914 13.1537 128.772 12.9134 128.59 12.7093C128.413 12.5087 128.215 12.3417 127.997 12.2083C127.64 11.9894 127.28 11.869 126.917 11.8471C126.558 11.8196 126.21 11.8681 125.873 11.9928C125.546 12.1152 125.244 12.2958 124.968 12.5346C124.696 12.7678 124.468 13.0357 124.283 13.3382C124.082 13.6687 123.945 14.0195 123.873 14.3904C123.8 14.7614 123.793 15.1261 123.851 15.4845C123.912 15.8373 124.034 16.1659 124.217 16.4701C124.409 16.7721 124.665 17.0206 124.983 17.2156C125.207 17.3524 125.46 17.4534 125.742 17.5186C126.024 17.5838 126.316 17.5967 126.616 17.5574C126.921 17.5215 127.214 17.4123 127.494 17.2298L127.827 17.7795C127.523 18.0012 127.18 18.137 126.796 18.187C126.413 18.2369 126.03 18.2177 125.646 18.1292C125.269 18.0441 124.929 17.9092 124.627 17.7245C124.219 17.4748 123.898 17.1588 123.663 16.7765C123.431 16.3886 123.278 15.972 123.204 15.5268C123.139 15.0794 123.15 14.6326 123.238 14.1863C123.329 13.7344 123.489 13.3208 123.717 12.9455Z"
          fill="currentColor"/>
    <path d="M134.345 24.6591C133.973 24.3376 133.7 23.9716 133.526 23.561C133.352 23.1504 133.265 22.724 133.265 22.2819C133.269 21.8348 133.348 21.4007 133.503 20.9797C133.662 20.5537 133.886 20.1717 134.177 19.8336C134.481 19.4806 134.831 19.1987 135.229 18.9877C135.631 18.7717 136.05 18.6359 136.487 18.5802C136.933 18.5238 137.369 18.5543 137.796 18.6716C138.226 18.7839 138.618 18.9922 138.97 19.2965C139.342 19.618 139.612 19.9865 139.782 20.4021C139.952 20.8177 140.033 21.2469 140.024 21.6897C140.02 22.1368 139.94 22.5709 139.786 22.9919C139.631 23.4129 139.41 23.79 139.124 24.1231C138.82 24.476 138.468 24.7605 138.066 24.9765C137.668 25.1875 137.249 25.3233 136.808 25.384C136.371 25.4396 135.939 25.4088 135.513 25.2915C135.086 25.1742 134.697 24.9634 134.345 24.6591ZM134.698 20.2837C134.45 20.572 134.257 20.8911 134.121 21.241C133.988 21.5859 133.919 21.9378 133.913 22.2966C133.911 22.6504 133.976 22.9924 134.107 23.3224C134.248 23.6517 134.462 23.9407 134.749 24.1893C135.052 24.4508 135.375 24.6222 135.72 24.7037C136.074 24.7845 136.425 24.7933 136.774 24.7303C137.131 24.6665 137.467 24.5415 137.783 24.3552C138.099 24.1688 138.375 23.939 138.61 23.6655C138.858 23.3772 139.048 23.0606 139.18 22.7157C139.313 22.3707 139.379 22.0167 139.38 21.6536C139.386 21.2948 139.322 20.9529 139.186 20.6278C139.051 20.3028 138.839 20.016 138.552 19.7674C138.254 19.5102 137.931 19.3387 137.581 19.253C137.236 19.1715 136.885 19.1627 136.527 19.2264C136.179 19.2895 135.845 19.412 135.524 19.594C135.208 19.7804 134.933 20.0102 134.698 20.2837Z"
          fill="currentColor"/>
    <path d="M147.399 27.4458L144.302 33.2972L150.59 31.2773L151.05 31.829L143.847 34.0881L143.444 33.6045L146.939 26.8941L147.399 27.4458Z"
          fill="currentColor"/>
    <path d="M152.323 45.098L151.803 45.4154L149.367 41.4035L155.323 37.769L157.713 41.7051L157.192 42.0225L155.16 38.6751L153.013 39.9856L154.785 42.9041L154.29 43.2061L152.518 40.2876L150.245 41.6749L152.323 45.098Z"
          fill="currentColor"/>
    <path d="M154.852 51.1815L161.28 48.4739L162.421 51.1971C162.537 51.4755 162.587 51.7538 162.568 52.0321C162.55 52.3104 162.477 52.5762 162.349 52.8295C162.229 53.0864 162.067 53.311 161.864 53.5035C161.669 53.6995 161.448 53.8496 161.201 53.9538C160.893 54.0835 160.578 54.145 160.255 54.1384C159.936 54.1378 159.636 54.068 159.358 53.9289C159.082 53.7959 158.853 53.5969 158.671 53.3319L156.852 55.9562L156.552 55.2391L158.289 52.724L157.49 50.8178L155.118 51.8169L154.852 51.1815ZM158.051 50.5813L158.934 52.6873C159.04 52.9415 159.202 53.1331 159.42 53.2623C159.637 53.3914 159.879 53.4604 160.145 53.4692C160.418 53.4754 160.681 53.4252 160.934 53.3184C161.194 53.2091 161.407 53.0481 161.574 52.8356C161.749 52.6265 161.861 52.3942 161.91 52.1386C161.968 51.8864 161.946 51.6393 161.844 51.3973L160.985 49.3458L158.051 50.5813Z"
          fill="currentColor"/>
    <path d="M167.747 80.8032C167.853 80.6986 167.944 80.5784 168.022 80.4425C168.106 80.3063 168.176 80.1544 168.232 79.9868C168.288 79.8193 168.331 79.6394 168.359 79.4471C168.388 79.2614 168.397 79.0637 168.385 78.8539C168.351 78.2445 168.208 77.8022 167.956 77.5272C167.712 77.2583 167.39 77.1352 166.991 77.1577C166.717 77.1732 166.505 77.251 166.355 77.3909C166.206 77.5374 166.09 77.7576 166.009 78.0515C165.927 78.3455 165.846 78.7182 165.767 79.1697C165.69 79.6737 165.59 80.11 165.467 80.4786C165.343 80.8472 165.163 81.1368 164.925 81.3475C164.695 81.5578 164.37 81.6747 163.952 81.6984C163.631 81.7165 163.35 81.67 163.108 81.5588C162.865 81.4476 162.66 81.285 162.49 81.0711C162.321 80.8571 162.188 80.5983 162.092 80.2948C162.003 79.9908 161.948 79.6554 161.928 79.2884C161.907 78.9279 161.924 78.5785 161.977 78.2402C162.037 77.9081 162.13 77.5905 162.258 77.2875C162.391 76.9841 162.565 76.6981 162.78 76.4296L163.358 76.742C163.234 76.8739 163.118 77.0284 163.01 77.2054C162.909 77.3887 162.819 77.5877 162.739 77.8026C162.66 78.0241 162.601 78.2575 162.562 78.503C162.53 78.7546 162.522 79.0115 162.537 79.2736C162.568 79.8307 162.694 80.2575 162.914 80.554C163.134 80.8571 163.443 80.9974 163.842 80.9748C164.13 80.9586 164.354 80.867 164.515 80.7001C164.683 80.5328 164.813 80.2887 164.907 79.9679C165 79.647 165.086 79.2543 165.165 78.7896C165.249 78.2983 165.35 77.8817 165.468 77.5397C165.587 77.1977 165.752 76.9352 165.965 76.7523C166.185 76.5755 166.481 76.4766 166.853 76.4555C167.285 76.4311 167.653 76.5154 167.959 76.7085C168.272 76.9077 168.514 77.1899 168.686 77.5549C168.863 77.9196 168.966 78.3444 168.993 78.8294C169.011 79.1374 168.994 79.4243 168.943 79.6902C168.9 79.9622 168.825 80.213 168.72 80.4424C168.616 80.6785 168.48 80.8998 168.315 81.1064L167.747 80.8032Z"
          fill="currentColor"/>
    <path d="M165.668 88.1268C166.092 88.1663 166.499 88.2767 166.89 88.4582C167.287 88.6468 167.638 88.8971 167.945 89.2091C168.258 89.5217 168.493 89.893 168.65 90.323C168.814 90.7536 168.872 91.2303 168.823 91.7532C168.766 92.3741 168.573 92.8901 168.246 93.3013C167.924 93.7196 167.532 94.0127 167.07 94.1805L166.787 93.6103C167.108 93.4886 167.366 93.3215 167.563 93.1091C167.767 92.8974 167.92 92.6644 168.023 92.4103C168.125 92.1627 168.187 91.9114 168.211 91.6565C168.25 91.2382 168.199 90.8611 168.059 90.525C167.926 90.1896 167.73 89.8977 167.47 89.6494C167.216 89.4082 166.922 89.2159 166.586 89.0726C166.258 88.9299 165.917 88.8422 165.565 88.8094C165.181 88.7736 164.806 88.8046 164.442 88.9025C164.078 89.0004 163.748 89.1543 163.453 89.3641C163.164 89.5744 162.923 89.8289 162.731 90.1274C162.545 90.4331 162.435 90.7722 162.4 91.1448C162.376 91.4062 162.397 91.6784 162.462 91.9614C162.528 92.2444 162.645 92.5124 162.812 92.7653C162.979 93.0247 163.205 93.2403 163.492 93.4121L163.146 93.9533C162.814 93.7774 162.541 93.5278 162.327 93.2047C162.114 92.8816 161.963 92.528 161.874 92.1439C161.784 91.7663 161.755 91.4011 161.788 91.0482C161.832 90.571 161.974 90.1426 162.213 89.7627C162.458 89.3835 162.764 89.0626 163.13 88.8C163.502 88.5447 163.908 88.3583 164.346 88.2409C164.791 88.1241 165.231 88.0861 165.668 88.1268Z"
          fill="currentColor"/>
    <path d="M160.577 100.123L167.339 101.828L166.62 104.693C166.547 104.986 166.419 105.238 166.238 105.449C166.057 105.661 165.839 105.829 165.584 105.955C165.335 106.088 165.071 106.17 164.793 106.202C164.52 106.241 164.253 106.228 163.993 106.162C163.669 106.081 163.381 105.94 163.127 105.741C162.871 105.548 162.674 105.312 162.535 105.033C162.394 104.761 162.33 104.463 162.343 104.142L159.317 105.145L159.506 104.391L162.402 103.426L162.905 101.42L160.41 100.791L160.577 100.123ZM163.495 101.569L162.939 103.785C162.872 104.052 162.887 104.303 162.983 104.537C163.08 104.771 163.232 104.972 163.44 105.139C163.654 105.308 163.894 105.427 164.161 105.494C164.434 105.563 164.701 105.562 164.961 105.493C165.226 105.431 165.455 105.313 165.648 105.138C165.845 104.971 165.975 104.76 166.039 104.506L166.581 102.348L163.495 101.569Z"
          fill="currentColor"/>
    <path d="M156.119 114.193C156.315 113.742 156.582 113.372 156.921 113.083C157.261 112.794 157.641 112.584 158.062 112.453C158.489 112.324 158.926 112.271 159.373 112.294C159.826 112.32 160.256 112.421 160.665 112.599C161.091 112.785 161.464 113.037 161.783 113.355C162.108 113.675 162.362 114.036 162.544 114.438C162.731 114.848 162.831 115.275 162.846 115.718C162.867 116.164 162.785 116.601 162.6 117.028C162.404 117.48 162.133 117.848 161.788 118.134C161.443 118.421 161.058 118.625 160.633 118.748C160.206 118.877 159.769 118.93 159.323 118.907C158.876 118.884 158.451 118.785 158.049 118.609C157.622 118.424 157.247 118.17 156.922 117.85C156.603 117.532 156.349 117.171 156.16 116.766C155.977 116.365 155.878 115.942 155.863 115.499C155.848 115.056 155.934 114.621 156.119 114.193ZM160.391 113.231C160.042 113.08 159.681 112.99 159.308 112.963C158.94 112.939 158.584 112.977 158.241 113.078C157.903 113.182 157.597 113.345 157.321 113.569C157.049 113.801 156.838 114.091 156.686 114.441C156.527 114.808 156.46 115.169 156.485 115.523C156.513 115.886 156.609 116.225 156.772 116.539C156.939 116.863 157.158 117.148 157.43 117.395C157.701 117.642 158.002 117.837 158.332 117.981C158.68 118.133 159.038 118.221 159.406 118.245C159.774 118.269 160.131 118.228 160.477 118.121C160.82 118.02 161.127 117.857 161.396 117.631C161.665 117.405 161.876 117.117 162.027 116.768C162.184 116.407 162.251 116.046 162.229 115.685C162.204 115.331 162.108 114.992 161.941 114.669C161.778 114.355 161.562 114.071 161.293 113.818C161.022 113.571 160.721 113.375 160.391 113.231Z"
          fill="currentColor"/>
    <path d="M151.459 123.74L157.334 127.504L156.964 128.085L151.602 124.649L149.434 128.051L148.921 127.722L151.459 123.74Z"
          fill="currentColor"/>
    <path d="M145.104 132.967L150.378 137.539L149.929 138.06L145.115 133.888L142.482 136.941L142.021 136.542L145.104 132.967Z"
          fill="currentColor"/>
    <path d="M131.446 154.088L133.471 152.645L129.787 147.443L130.347 147.044L134.032 152.246L136.058 150.804L136.41 151.301L131.798 154.585L131.446 154.088Z"
          fill="currentColor"/>
    <path d="M119.927 153.426C120.367 153.208 120.809 153.098 121.254 153.098C121.699 153.097 122.125 153.182 122.531 153.355C122.94 153.533 123.308 153.775 123.634 154.082C123.964 154.395 124.227 154.751 124.424 155.151C124.63 155.569 124.753 156.003 124.791 156.452C124.833 156.907 124.795 157.347 124.675 157.773C124.553 158.206 124.355 158.597 124.081 158.945C123.81 159.299 123.466 159.58 123.05 159.786C122.61 160.004 122.165 160.111 121.717 160.105C121.27 160.1 120.844 160.007 120.441 159.826C120.032 159.648 119.664 159.406 119.338 159.099C119.011 158.792 118.751 158.442 118.556 158.047C118.35 157.629 118.227 157.193 118.185 156.738C118.146 156.288 118.185 155.848 118.301 155.417C118.42 154.992 118.617 154.606 118.891 154.258C119.164 153.91 119.51 153.632 119.927 153.426ZM123.808 155.457C123.64 155.115 123.422 154.813 123.154 154.551C122.888 154.294 122.592 154.093 122.265 153.948C121.941 153.808 121.601 153.735 121.247 153.727C120.89 153.728 120.541 153.813 120.201 153.982C119.843 154.159 119.559 154.391 119.35 154.678C119.137 154.974 118.992 155.294 118.915 155.64C118.834 155.995 118.818 156.355 118.866 156.719C118.914 157.083 119.018 157.427 119.177 157.751C119.345 158.092 119.562 158.391 119.827 158.648C120.092 158.904 120.392 159.104 120.725 159.247C121.052 159.392 121.391 159.465 121.742 159.467C122.094 159.469 122.44 159.385 122.78 159.217C123.132 159.042 123.416 158.81 123.631 158.521C123.84 158.234 123.985 157.913 124.066 157.558C124.144 157.212 124.162 156.856 124.119 156.489C124.071 156.124 123.968 155.78 123.808 155.457Z"
          fill="currentColor"/>
    <path d="M103.069 159.859L104.417 166.718L102.094 167.176C101.369 167.32 100.734 167.284 100.192 167.07C99.6443 166.864 99.1972 166.524 98.8507 166.051C98.5054 165.584 98.2707 165.035 98.1467 164.403C98.0101 163.708 98.026 163.076 98.1946 162.507C98.3568 161.94 98.6573 161.466 99.0962 161.085C99.5287 160.705 100.079 160.449 100.747 160.317L103.069 159.859ZM98.8212 164.27C98.9287 164.818 99.127 165.284 99.4161 165.668C99.6987 166.054 100.056 166.328 100.488 166.49C100.922 166.659 101.418 166.688 101.977 166.577L103.624 166.252L102.512 160.591L100.865 160.916C100.299 161.028 99.8488 161.247 99.5127 161.575C99.1767 161.902 98.9508 162.298 98.8352 162.762C98.7209 163.233 98.7162 163.736 98.8212 164.27Z"
          fill="currentColor"/>
    <path d="M90.5718 161.785L91.0558 168.759L90.3701 168.807L89.886 161.833L90.5718 161.785Z" fill="currentColor"/>
    <path d="M79.5147 167.551C79.6077 167.667 79.7176 167.771 79.8445 167.862C79.9711 167.96 80.1146 168.045 80.2751 168.118C80.4356 168.191 80.6098 168.252 80.7977 168.3C80.979 168.348 81.1743 168.376 81.3836 168.386C81.9918 168.414 82.4452 168.317 82.7437 168.094C83.0355 167.877 83.1905 167.569 83.2088 167.169C83.2214 166.894 83.166 166.674 83.0424 166.511C82.9122 166.347 82.7055 166.21 82.4223 166.098C82.139 165.986 81.7775 165.868 81.3376 165.742C80.8453 165.615 80.4227 165.47 80.0696 165.309C79.7165 165.149 79.4476 164.939 79.2628 164.681C79.0777 164.429 78.9948 164.094 79.014 163.674C79.0287 163.353 79.1036 163.077 79.2387 162.847C79.3738 162.616 79.5561 162.427 79.7857 162.28C80.0152 162.133 80.2855 162.027 80.5965 161.963C80.9072 161.905 81.2456 161.884 81.6119 161.901C81.9716 161.918 82.3165 161.97 82.6468 162.057C82.9702 162.151 83.2757 162.277 83.5634 162.435C83.8508 162.599 84.1167 162.802 84.3613 163.043L83.9922 163.588C83.874 163.451 83.7326 163.32 83.5679 163.194C83.3964 163.074 83.2082 162.964 83.0031 162.862C82.7915 162.76 82.5659 162.678 82.3263 162.614C82.0799 162.557 81.8259 162.522 81.5643 162.51C81.0084 162.485 80.5721 162.566 80.2554 162.755C79.9322 162.944 79.7614 163.239 79.7431 163.639C79.7299 163.927 79.7978 164.16 79.947 164.338C80.0958 164.522 80.3247 164.677 80.6335 164.803C80.9423 164.929 81.3232 165.055 81.7762 165.181C82.255 165.315 82.6581 165.458 82.9853 165.611C83.3125 165.764 83.556 165.956 83.7159 166.187C83.8688 166.424 83.9368 166.73 83.9196 167.103C83.8998 167.536 83.7785 167.895 83.5557 168.181C83.3261 168.472 83.0214 168.685 82.6417 168.819C82.2617 168.959 81.8298 169.018 81.3458 168.995C81.0384 168.981 80.7554 168.935 80.4968 168.858C80.2314 168.786 79.9902 168.687 79.7733 168.558C79.5498 168.43 79.344 168.272 79.1559 168.086L79.5147 167.551Z"
          fill="currentColor"/>
    <path d="M72.4612 164.729C72.3787 165.148 72.2276 165.543 72.0076 165.914C71.78 166.291 71.4958 166.616 71.1549 166.89C70.8128 167.17 70.4204 167.366 69.9777 167.479C69.5337 167.599 69.0548 167.608 68.541 167.506C67.9308 167.385 67.4385 167.141 67.064 166.772C66.6817 166.409 66.431 165.988 66.3117 165.509L66.9063 165.286C66.9944 165.618 67.1337 165.893 67.3243 166.111C67.5136 166.336 67.7291 166.512 67.9708 166.641C68.206 166.767 68.4489 166.856 68.6994 166.905C69.1105 166.987 69.4898 166.975 69.8375 166.87C70.184 166.771 70.4936 166.605 70.7665 166.371C71.0317 166.143 71.2526 165.868 71.429 165.549C71.6041 165.236 71.7259 164.905 71.7944 164.557C71.8692 164.177 71.8766 163.801 71.8167 163.428C71.7567 163.054 71.6377 162.71 71.4598 162.394C71.2805 162.084 71.0526 161.818 70.776 161.596C70.4918 161.379 70.1666 161.234 69.8005 161.162C69.5436 161.111 69.2713 161.104 68.9838 161.141C68.6963 161.177 68.4186 161.266 68.1506 161.407C67.8761 161.547 67.6391 161.751 67.4395 162.019L66.9377 161.619C67.1463 161.305 67.4217 161.059 67.7641 160.879C68.1065 160.699 68.4727 160.584 68.8629 160.535C69.2467 160.483 69.612 160.492 69.9589 160.561C70.4277 160.654 70.8384 160.839 71.1909 161.116C71.5421 161.4 71.8292 161.737 72.0523 162.129C72.2677 162.527 72.4112 162.95 72.483 163.399C72.5534 163.855 72.5461 164.298 72.4612 164.729Z"
          fill="currentColor"/>
    <path d="M58.4483 157.424C58.9081 157.596 59.2906 157.845 59.5957 158.17C59.9008 158.495 60.1296 158.865 60.2823 159.28C60.4326 159.701 60.5078 160.135 60.508 160.584C60.5059 161.039 60.4267 161.475 60.2706 161.893C60.1075 162.33 59.8759 162.716 59.5756 163.052C59.2731 163.394 58.9264 163.666 58.5357 163.87C58.1366 164.078 57.7167 164.2 57.2761 164.238C56.8333 164.282 56.3942 164.222 55.9589 164.059C55.4991 163.886 55.1178 163.634 54.815 163.303C54.5122 162.972 54.2887 162.598 54.1445 162.179C53.9942 161.758 53.9189 161.323 53.9187 160.874C53.9186 160.426 53.9954 159.996 54.1493 159.584C54.3124 159.147 54.5452 158.758 54.8477 158.416C55.1479 158.08 55.4946 157.807 55.8876 157.598C56.2783 157.394 56.6939 157.273 57.1345 157.235C57.5751 157.197 58.013 157.26 58.4483 157.424ZM59.6268 161.651C59.76 161.295 59.8304 160.929 59.8379 160.553C59.8431 160.184 59.7867 159.829 59.6686 159.491C59.5481 159.158 59.3695 158.86 59.1326 158.595C58.8873 158.335 58.5869 158.138 58.2313 158.005C57.8573 157.864 57.4945 157.816 57.1428 157.859C56.7827 157.906 56.4502 158.019 56.1453 158.199C55.8319 158.383 55.5592 158.617 55.3272 158.901C55.0951 159.185 54.9159 159.497 54.7896 159.835C54.6564 160.191 54.5872 160.554 54.582 160.924C54.5767 161.293 54.6362 161.649 54.7605 161.99C54.8786 162.328 55.0573 162.627 55.2964 162.885C55.5356 163.143 55.833 163.339 56.1886 163.472C56.5564 163.61 56.9192 163.659 57.2771 163.618C57.6288 163.575 57.9613 163.462 58.2746 163.278C58.5795 163.098 58.8511 162.867 59.0893 162.585C59.3213 162.301 59.5005 161.989 59.6268 161.651Z"
          fill="currentColor"/>
    <path d="M45.2393 159.335L46.1268 152.771L40.9231 156.847L40.3017 156.488L46.2803 151.871L46.8251 152.185L45.8607 159.694L45.2393 159.335Z"
          fill="currentColor"/>
    <path d="M34.5302 144.479L34.9087 144.001L38.5777 146.921L34.243 152.396L30.6432 149.532L31.0217 149.054L34.0831 151.49L35.646 149.516L32.977 147.391L33.3372 146.936L36.0062 149.061L37.6607 146.971L34.5302 144.479Z"
          fill="currentColor"/>
    <path d="M30.0589 139.649L24.9613 144.418L22.9513 142.259C22.7459 142.038 22.6037 141.794 22.5249 141.526C22.4461 141.259 22.4232 140.984 22.4561 140.702C22.4797 140.419 22.5538 140.153 22.6782 139.901C22.7934 139.65 22.9492 139.433 23.1454 139.249C23.3895 139.021 23.6639 138.854 23.9686 138.748C24.2689 138.638 24.5736 138.599 24.8828 138.633C25.1875 138.663 25.471 138.77 25.7333 138.955L26.5347 135.862L27.064 136.431L26.3018 139.393L27.7088 140.905L29.5899 139.145L30.0589 139.649ZM27.2637 141.321L25.7093 139.651C25.5217 139.45 25.3036 139.326 25.055 139.28C24.8065 139.234 24.5557 139.254 24.3027 139.338C24.0448 139.426 23.8154 139.565 23.6144 139.753C23.4086 139.945 23.2642 140.17 23.1812 140.427C23.089 140.684 23.0639 140.941 23.106 141.198C23.1388 141.455 23.2446 141.679 23.4233 141.871L24.9375 143.498L27.2637 141.321Z"
          fill="currentColor"/>
    <circle cx="83.5" cy="85.5" r="64.5" stroke="currentColor"/>
    <circle id="progress" cx="83.5" cy="85.5" r="64.5" stroke="currentColor" stroke-width="3"/>
</svg>
