<svg viewBox="0 0 40 40" fill="none" xmlns="http://www.w3.org/2000/svg">
    <path d="M34 11C34 12.0402 33.6756 13.0544 33.072 13.9015C32.4684 14.7486 31.6156 15.3864 30.6325 15.726C29.6493 16.0656 28.5847 16.0901 27.587 15.7961C26.5892 15.5022 25.708 14.9044 25.066 14.086L15.83 18.704C16.0579 19.5536 16.0579 20.4484 15.83 21.298L25.066 25.914C25.8315 24.9396 26.9314 24.2842 28.1527 24.0748C29.3739 23.8653 30.6295 24.1168 31.6758 24.7805C32.7222 25.4441 33.4849 26.4726 33.816 27.6667C34.1471 28.8607 34.0231 30.1351 33.468 31.2429C32.9128 32.3507 31.9662 33.2128 30.8115 33.6623C29.6568 34.1117 28.3763 34.1164 27.2184 33.6755C26.0604 33.2345 25.1075 32.3793 24.5442 31.2756C23.981 30.1719 23.8476 28.8984 24.17 27.702L14.934 23.086C14.2922 23.9047 13.411 24.5027 12.4131 24.7969C11.4153 25.0911 10.3506 25.0667 9.36733 24.7272C8.38402 24.3877 7.5311 23.7499 6.92737 22.9028C6.32365 22.0556 5.99918 21.0413 5.99918 20.001C5.99918 18.9607 6.32365 17.9464 6.92737 17.0992C7.5311 16.2521 8.38402 15.6143 9.36733 15.2748C10.3506 14.9353 11.4153 14.9109 12.4131 15.2051C13.411 15.4993 14.2922 16.0974 14.934 16.916L24.17 12.296C23.9728 11.5551 23.9484 10.7789 24.0985 10.0271C24.2487 9.27531 24.5695 8.56802 25.0361 7.95975C25.5027 7.35147 26.1028 6.85846 26.79 6.51868C27.4773 6.17891 28.2334 6.00146 29 6C30.3261 6 31.5979 6.52678 32.5355 7.46447C33.4732 8.40215 34 9.67392 34 11Z"
          fill="currentColor"/>
</svg>
