<svg viewBox="0 0 40 40" fill="none" xmlns="http://www.w3.org/2000/svg">
    <path d="M19.4199 34.6005V32.1317L18.717 32.8348C18.5669 32.985 18.3635 33.0692 18.1512 33.0692C17.9391 33.0692 17.7354 32.985 17.5853 32.8348C17.4352 32.6847 17.3509 32.4813 17.3509 32.269C17.3509 32.0569 17.4352 31.8532 17.5853 31.7031L19.2829 30.0058L19.2832 30.0061C19.3245 29.9642 19.3703 29.9274 19.4199 29.8959V22.1393L13.9045 27.6548C13.9112 27.6972 13.9145 27.7399 13.9145 27.7826V30.1828V30.1825C13.9145 30.6244 13.5565 30.9827 13.1146 30.9827C12.6729 30.9827 12.3146 30.6244 12.3146 30.1825V29.2452L10.5973 30.9626C10.2848 31.2751 9.77833 31.2751 9.46582 30.9626C9.15332 30.6501 9.15332 30.1434 9.46582 29.8309L11.2119 28.0848H10.2175V28.0851C9.7755 28.0851 9.41725 27.7268 9.41725 27.2849C9.41725 26.8432 9.77551 26.4849 10.2175 26.4849H12.6177H12.6174C12.6762 26.4846 12.7348 26.4911 12.7923 26.5039L18.2765 21.0197H10.4764C10.4512 21.0541 10.4236 21.0867 10.3935 21.1168L8.69675 22.8141C8.38424 23.1267 7.87752 23.1267 7.56502 22.8139C7.25251 22.5014 7.25251 21.9946 7.56502 21.6821L8.22769 21.0197H5.79994C5.35797 21.0197 5 20.6615 5 20.2198C5 19.7778 5.35798 19.4196 5.79994 19.4196H8.26869L7.56555 18.7167V18.717C7.41543 18.5669 7.33118 18.3632 7.33118 18.1511C7.33118 17.9388 7.41544 17.7354 7.56555 17.5853C7.71539 17.4352 7.91907 17.3509 8.13141 17.3509C8.34347 17.3509 8.54715 17.4352 8.69699 17.5853L10.3937 19.2829H10.394C10.4356 19.3242 10.4724 19.3702 10.5039 19.4196H18.3176L12.7933 13.8947L12.793 13.895C12.7358 13.9081 12.6769 13.9145 12.6183 13.9145H10.2181C9.77617 13.9145 9.4182 13.5562 9.4182 13.1145C9.4182 12.6726 9.77618 12.3143 10.2181 12.3143H11.2126L9.46698 10.5687C9.31687 10.4189 9.23261 10.2152 9.23233 10.0031C9.23233 9.7908 9.31659 9.5874 9.4667 9.43728C9.77892 9.12478 10.2856 9.12478 10.5981 9.43728L12.3152 11.1544V10.2172C12.3152 9.77546 12.6735 9.41721 13.1155 9.41721C13.5572 9.41721 13.9154 9.77547 13.9154 10.2172V12.6173C13.9154 12.66 13.9121 12.7027 13.9054 12.7448L19.4211 18.2606V10.504C19.3711 10.4725 19.3251 10.4357 19.2835 10.3941L17.5862 8.69678C17.2737 8.38428 17.2737 7.87756 17.5862 7.56505C17.8987 7.25255 18.4054 7.25255 18.7179 7.56505L19.4211 8.26819V5.79994C19.4211 5.35797 19.7791 5 20.221 5C20.6627 5 21.021 5.35798 21.021 5.79994V8.22883L21.6839 7.56588C21.9964 7.25337 22.5029 7.25337 22.8154 7.56588C23.1279 7.87838 23.1279 8.38511 22.8154 8.69761L21.118 10.3949H21.1183C21.0879 10.4251 21.0555 10.4527 21.021 10.4775V18.2776L26.5054 12.7932C26.4923 12.7357 26.4859 12.6771 26.4859 12.6182V10.2181C26.4859 9.77609 26.8441 9.41812 27.2858 9.41812C27.7278 9.41812 28.0857 9.7761 28.0857 10.2181V11.2125L29.8313 9.46641H29.8316C30.1438 9.1539 30.6505 9.1539 30.9631 9.46613C31.2756 9.77863 31.2756 10.2851 30.9631 10.5976L29.2454 12.3152H30.1832C30.6249 12.3152 30.9831 12.6735 30.9831 13.1155C30.9831 13.5572 30.6249 13.9154 30.1832 13.9154H27.783C27.7403 13.9151 27.6976 13.9118 27.6555 13.9048L22.1395 19.4208H29.896L29.8957 19.4211C29.9273 19.3711 29.9641 19.3251 30.0057 19.2835L31.703 17.5862C32.0155 17.2737 32.5222 17.2737 32.8347 17.5862C33.1472 17.8987 33.1472 18.4054 32.8347 18.7179L32.1316 19.4211H34.6006C35.0426 19.4211 35.4006 19.7791 35.4006 20.221C35.4006 20.6627 35.0426 21.021 34.6006 21.021H32.1723L32.835 21.6836V21.6839C33.1475 21.9964 33.1475 22.5029 32.835 22.8154C32.5225 23.1279 32.0157 23.1279 31.7032 22.8154L30.0059 21.1181L30.0062 21.1183C29.9761 21.0879 29.9485 21.0556 29.9233 21.021H22.1804L27.6556 26.4962C27.6977 26.4895 27.7404 26.4859 27.7831 26.4859H30.1833C30.625 26.4859 30.9832 26.8441 30.9832 27.2858C30.9832 27.7278 30.625 28.0857 30.1833 28.0857H29.2461L30.9637 29.8028V29.8031C31.2762 30.1156 31.2762 30.6226 30.9637 30.9351C30.6509 31.2476 30.1442 31.2476 29.8317 30.9351L28.0861 29.189V30.1829L28.0858 30.1832C28.0858 30.6249 27.7278 30.9831 27.2859 30.9831C26.8442 30.9831 26.486 30.6249 26.486 30.1832V27.783C26.4857 27.7241 26.4918 27.6655 26.5046 27.6083L21.0205 22.1242V29.9243H21.0208C21.0551 29.9494 21.0877 29.977 21.1179 30.0072L22.8152 31.7045C23.1277 32.017 23.1274 32.5237 22.8149 32.8362C22.5024 33.1487 21.9957 33.1487 21.6832 32.8359L21.0208 32.1733V34.6004C21.0208 35.0424 20.6625 35.4004 20.2208 35.4004C19.7789 35.4004 19.4206 35.0424 19.4206 34.6004L19.4199 34.6005Z"
          fill="currentColor"/>
</svg>
