<svg fill="none" viewBox="0 0 128 129" xmlns="http://www.w3.org/2000/svg">
    <circle cx="64" cy="64" fill="currentColor" fill-opacity=".24" r="44.5" stroke="currentColor"/>
    <g fill="currentColor">
        <path d="m54.0782 128.88-1.1391-5.727-3.1811 4.892-.6221-.12 3.6737-5.566.5453.105 1.3454 6.536z"/>
        <path d="m44.5553 120.036c.4569.165.8135.387 1.0699.664.2563.278.4276.586.514.925.0843.345.1069.707.0678 1.087-.0446.377-.134.751-.2681 1.121l-1.0589 2.921-.563-.204 1.0589-2.921c.1085-.299.1851-.604.2297-.914.0393-.312.0296-.608-.029-.887-.0586-.28-.1829-.531-.373-.754-.192-.217-.4675-.391-.8265-.521-.3699-.134-.6991-.177-.9877-.128-.2961.053-.5535.169-.7723.348-.2243.177-.4176.397-.5799.658-.1644.266-.2998.547-.4063.84l-1.0589 2.921-.5711-.207 1.0589-2.921c.14-.386.3176-.74.5328-1.062s.469-.581.7615-.777c.287-.197.6141-.319.9813-.364s.7739.013 1.2199.175z"/>
        <path d="m34.0999 115.789.2581-.472 3.6326 1.985-2.9551 5.408-3.5641-1.948.2581-.472 3.031 1.656 1.0655-1.949-2.6426-1.445.2455-.449 2.6426 1.444 1.1279-2.064z"/>
        <path d="m26.8608 109.936-3.9853 4.7-.4634-.393 3.9854-4.7z"/>
        <path d="m19.167 109.733 3.7142-3.411.4108.448-4.5388 4.167-.3405-.371 1.0493-6.454-3.7781 3.469-.4109-.447 4.5325-4.162.3815.416z"/>
        <path d="m9.96143 98.9319 1.22227 1.8241 4.6719-3.1307.3382.5047-4.6719 3.131 1.2222 1.824-.447.3-2.78267-4.1536z"/>
        <path d="m10.5602 89.1387.4841-.235 1.8075 3.7247-5.54353 2.6905-1.77335-3.6543.48408-.235 1.5081 3.1078 1.99879-.9701-1.31485-2.7096.46065-.2235 1.31486 2.7095 2.11585-1.027zm-5.03616 4.4317.03778.4158-.94968-.1083-.27282-.5622z"/>
        <path d="m9.60765 85.3113-5.87062 1.8721-.79096-2.4808c-.08086-.2535-.10231-.5018-.06437-.7447.03794-.2428.12326-.4705.25595-.6828.12542-.2162.28519-.4007.47932-.5537.18686-.1568.39329-.2712.61929-.3433.28113-.0896.5633-.1189.84651-.0877.28145.0256.53925.1104.77341.2544.2324.1384.41835.3312.55784.5782l1.80681-2.1613.20828.6533-1.72603 2.0718.55367 1.7365 2.16634-.6908zm-2.86354.2755-.61168-1.9185c-.07383-.2315-.20137-.4125-.38265-.543-.18127-.1304-.38882-.21-.62266-.2387-.23935-.0269-.47478-.0035-.7063.0704-.23703.0756-.43719.2001-.60048.3737-.17056.1697-.28747.3649-.35074.5855-.07053.2169-.07065.4355-.00034.656l.59586 1.8689z"/>
        <path d="m7.3395 77.0496-6.04717 1.1834-.11666-.5963 6.04718-1.1833z"/>
        <path d="m5.68266 68.2511.53626-.0443.34072 4.126-6.140939.5072-.3342968-4.0481.5362518-.0443.284295 3.4426 2.214199-.1828-.24787-3.0016.51031-.0421.24786 3.0015 2.34394-.1936z"/>
        <path d="m6.37152 61.8459c-.03399.4848-.14929.8886-.34591 1.2112-.19661.3227-.44609.572-.74843.748-.30811.1756-.65009.2967-1.02595.3631-.37545.0607-.75941.0773-1.15188.0498l-3.09935-.2173.0418776-.5974 3.0993524.2173c.31744.0222.63133.0123.94168-.0297.31075-.0478.59259-.1383.84551-.2714.25293-.133.46044-.3215.62253-.5654.15633-.2442.24784-.5568.27454-.9378.02752-.3925-.02197-.7208-.14846-.9849-.13185-.2702-.31392-.486-.54622-.6473-.23188-.1671-.49566-.2929-.79134-.3774-.30144-.085-.608-.1384-.91966-.1602l-3.099355-.2173.042485-.6061 3.09935.2173c.40979.0288.79902.1024 1.1677.2211s.68714.2918.95538.5194c.26865.2219.47513.5032.61945.8439.14431.3408.19988.7478.1667 1.2211z"/>
        <path d="m7.18907 54.7847-6.00378-1.3869.58595-2.537c.0599-.2593.16814-.4837.32473-.6732s.34613-.3417.56862-.4566c.21816-.1218.44975-.199.69477-.2314.24069-.0395.4766-.0325.70774.0209.2875.0664.54507.1853.77271.3567.22894.1657.40735.3702.53523.6135.12919.2377.19072.4984.18459.782l2.6568-.9362-.1543.6681-2.54166.9005-.41016 1.7759 2.21548.5117zm-2.60303-1.2248.45313-1.962c.05469-.2368.03739-.4575-.05191-.6623-.08929-.2047-.22716-.3791-.41361-.5231-.19208-.1453-.40651-.2453-.64327-.3-.24241-.056-.47811-.0511-.70709.0148-.23333.0589-.43348.1671-.60047.3245-.17133.1505-.28303.3385-.33512.564l-.44141 1.9112z"/>
        <path d="m10.4132 42.4812.5017.1947-1.49759 3.8597-5.74452-2.2293 1.46931-3.7869.50163.1947-1.24954 3.2204 2.07126.8038 1.08943-2.8077.47736.1852-1.08942 2.8078 2.19262.8509z"/>
        <path d="m13.5657 26.2383 5.559 1.7863-2.7311-5.1576.4072-.4854 3.0808 5.9155-.357.4256-6.3661-1.999z"/>
        <path d="m25.9218 22.21c-.3667.3189-.7336.523-1.1008.6122-.3671.0893-.7198.0893-1.0581 0-.342-.0935-.6695-.2497-.9823-.4684-.3085-.2224-.5918-.4821-.85-.779l-2.0387-2.3447.4518-.393 2.0388 2.3447c.2088.2401.4378.455.6871.6447.2536.1858.5169.3211.7899.4057.2729.0847.5529.0981.8399.0402.2833-.0623.5689-.2188.8571-.4694.2969-.2581.4939-.5254.5911-.8016.0977-.2844.1215-.5657.0711-.844-.0459-.2821-.1436-.5576-.293-.8264-.1532-.2732-.3323-.5276-.5373-.7634l-2.0388-2.3447.4584-.3986 2.0388 2.3446c.2696.31.4928.6373.6698.9819.1769.3445.2798.6921.3086 1.0427.0333.3469-.0195.6918-.1583 1.0349-.1387.343-.3871.6702-.7451.9816z"/>
        <path d="m34.7122 15.1331.2874.455-3.5 2.211-3.2907-5.21 3.4339-2.1693.2874.455-2.9203 1.8448 1.1865 1.8785 2.5461-1.6084.2734.4329-2.5461 1.6084 1.2561 1.9887z"/>
        <path d="m43.3446 11.6487-2.1718-5.76693.5685-.21414 2.1718 5.76687z"/>
        <path d="m47.2598 5.02176 1.1765 4.90351-.5907.14173-1.4378-5.9922.4894-.11747 5.1315 4.05259-1.1968-4.98791.5907-.14177 1.4358 5.9838-.5485.13165z"/>
        <path d="m61.1713 2.22117-2.1881.18232.4669 5.60481-.6054.05044-.4669-5.60481-2.1881.18232-.0447-.53627 4.9816-.41507z"/>
        <path d="m69.4401 7.50177-.0298.53729-4.1334-.2293.3413-6.15289 4.0553.22497-.0298.5373-3.4488-.19133-.123 2.21851 3.0069.16681-.0284.5113-3.0069-.16681-.1302 2.3485zm-1.427-6.555235-.3818-.168955.556-.77758.6239.0346115z"/>
        <path d="m73.248 8.52844 1.2155-6.04127 2.5525.51365c.2609.0525.4883.15433.6821.30548.1939.15116.3514.33631.4725.55546.128.21463.2117.44395.2511.68797.0463.2395.046.47553-.0008.7081-.0582.2893-.1697.55017-.3345.78261-.1591.23358-.3585.41774-.5981.5525-.2339.1359-.4927.20482-.7763.20675l1.0113 2.62933-.6721-.13526-.9724-2.51523-1.7867-.35955-.4485 2.22931zm1.1503-2.63701 1.9739.39722c.2382.04794.4584.02436.6604-.07072.2021-.09508.3725-.23787.5111-.42835.1398-.19615.2337-.41335.2816-.6516.0491-.24392.0375-.4794-.0349-.70644-.0655-.23157-.1793-.42858-.3414-.59105-.1552-.16699-.3463-.27332-.5732-.31897l-1.9228-.38695z"/>
        <path d="m81.5704 10.5589 1.9033-5.86097.5778.18766-1.9033 5.86101z"/>
        <path d="m90.0654 13.3846-.2218.4903-3.7717-1.7064 2.5397-5.61458 3.7006 1.67424-.2218.49029-3.147-1.42383-.9158 2.0244 2.7438 1.24138-.2111.4666-2.7438-1.24142-.9694 2.14302z"/>
        <path d="m95.3289 17.098c-.4072-.2652-.7041-.5621-.8906-.8907s-.2832-.6678-.2902-1.0176c-.0038-.3547.0565-.7124.181-1.0733.1294-.3576.3014-.7013.5161-1.031l1.6955-2.6038.5018.3268-1.6955 2.6038c-.1737.2666-.3175.5458-.4315.8376-.1091.2948-.167.5851-.1736.8709-.0065.2857.0574.5587.1918.8188.1376.2553.3663.4872.6863.6956.3297.2147.6407.3309.9329.3486.3003.0161.5773-.0383.8312-.163.2586-.1215.4967-.291.7142-.5084.2207-.2223.4163-.4643.5868-.7261l1.6959-2.6038.509.3315-1.6958 2.6038c-.2242.3443-.4777.6487-.7605.9134-.2828.2646-.5888.4589-.9181.5828-.3244.1271-.6705.1709-1.0385.1316-.3679-.0394-.7506-.1885-1.1482-.4475z"/>
        <path d="m101.103 21.2432 4.129-4.5746 1.933 1.7446c.197.1784.341.382.43.6109.09.229.131.4686.123.7189.001.2499-.044.4898-.135.7198-.082.2295-.203.4323-.362.6084-.198.2191-.427.3865-.687.5023-.256.1196-.522.1762-.796.1698-.271-.0025-.529-.0754-.773-.2185l-.473 2.7773-.509-.4595.448-2.6592-1.353-1.2212-1.524 1.688zm2.335-1.6805 1.495 1.3492c.181.1628.382.2549.604.2763s.442-.0144.658-.1074c.221-.0974.412-.2362.575-.4166.167-.1847.277-.3932.331-.6253.061-.2326.064-.4601.008-.6826-.049-.2228-.159-.4118-.33-.5669l-1.457-1.3143z"/>
        <path d="m110.291 30.0381-.414.344-2.646-3.184 4.739-3.9387 2.596 3.1239-.414.344-2.208-2.6567-1.708 1.4201 1.924 2.3163-.393.3273-1.925-2.3163-1.809 1.5034z"/>
        <path d="m122.956 40.6843-4.262 3.9917 5.835.118.226.5917-6.667-.1804-.198-.5188 4.839-4.5939z"/>
        <path d="m120.474 53.4422c-.1-.4755-.1-.8954 0-1.2597s.272-.6726.514-.925c.248-.2535.543-.4639.886-.6312.345-.1615.709-.283 1.094-.3645l3.04-.6432.124.5859-3.04.6432c-.311.0659-.61.1617-.897.2875-.286.1314-.532.2958-.738.4933-.207.1975-.355.4358-.443.7148-.084.2778-.086.6036-.007.9772.082.3849.22.687.414.9061.201.2236.435.381.703.4722.269.0969.557.1453.865.1453.313-.0012.622-.0342.928-.0989l3.04-.6432.125.5944-3.039.6432c-.402.0851-.797.1212-1.184.1085s-.741-.0916-1.061-.2367c-.319-.1394-.595-.3531-.828-.641-.232-.288-.397-.664-.496-1.1282z"/>
        <path d="m122.389 64.5641-.537.0302-.232-4.1336 6.152-.3457.228 4.0555-.537.0302-.194-3.4489-2.218.1247.169 3.007-.512.0287-.168-3.007-2.349.132z"/>
        <path d="m121.242 73.8031 6.095.9029-.089.601-6.095-.903z"/>
        <path d="m125.132 80.4444-4.857-1.3534.163-.5853 5.936 1.654-.136.4849-6.034 2.5171 4.941 1.3768-.163.5852-5.928-1.6516.152-.5435z"/>
        <path d="m120.822 93.9658.903-2.0013-5.125-2.3145.25-.5537 5.125 2.3144.904-2.0013.49.2215-2.057 4.5563z"/>
        <path d="m112.19 98.6289-.455-.287 2.208-3.5019 5.212 3.2873-2.167 3.4357-.455-.287 1.843-2.9219-1.879-1.1852-1.607 2.5474-.433-.2732 1.606-2.5474-1.989-1.2547zm6.422 1.9371.334-.252.409.864-.333.529z"/>
        <path d="m109.443 101.459 4.69 3.997-1.689 1.982c-.173.202-.372.352-.599.448-.226.096-.464.143-.715.143-.249.007-.491-.031-.723-.115-.232-.076-.438-.191-.618-.345-.225-.191-.399-.415-.522-.672-.127-.253-.191-.516-.192-.791-.005-.271.06-.53.196-.779l-2.789-.394.444-.521 2.671.371 1.182-1.387-1.73-1.475zm1.746 2.286-1.306 1.533c-.158.185-.244.389-.259.612-.015.222.027.441.126.654.103.218.248.405.433.563.189.161.4.266.634.313.234.055.462.051.682-.012.222-.054.408-.17.558-.346l1.272-1.493z"/>
        <path d="m103.625 107.748 4.198 4.51-.445.414-4.198-4.51z"/>
        <path d="m97.0292 113.801-.3208-.432 3.3236-2.468 3.674 4.947-3.261 2.422-.321-.432 2.773-2.059-1.325-1.784-2.4173 1.795-.3053-.411 2.4176-1.795-1.4019-1.889z"/>
        <path d="m91.2263 116.598c.4296-.227.8333-.342 1.2111-.346.3778-.003.7213.077 1.0304.241.3118.169.5952.395.8501.68.2498.286.4666.604.6505.952l1.4521 2.746-.5294.28-1.4521-2.747c-.1488-.281-.3229-.542-.5225-.784-.2047-.238-.4303-.43-.6769-.574-.2465-.145-.5162-.222-.8088-.231-.29-.003-.6037.084-.9413.262-.3478.184-.6005.4-.7579.647-.1599.254-.247.523-.2613.805-.0194.286.0131.576.0974.872.0871.301.2036.589.3496.865l1.4521 2.747-.537.284-1.4521-2.747c-.192-.363-.335-.732-.4289-1.108-.094-.376-.1151-.738-.0635-1.086.0465-.345.1764-.669.3895-.971.2132-.303.5294-.565.9489-.787z"/>
        <path d="m84.7987 119.633 1.9926 5.831-2.4636.842c-.2519.086-.4996.112-.7432.08-.2436-.033-.4729-.114-.688-.242-.2186-.121-.4064-.277-.5634-.468-.1606-.184-.2792-.388-.3559-.612-.0954-.28-.1305-.561-.1052-.845.0198-.282.0993-.541.2384-.778.1336-.236.3224-.426.5665-.57l-2.1979-1.762.6488-.222 2.1067 1.683 1.7246-.589-.7353-2.152zm.3344 2.857-1.9052.651c-.23.079-.4083.21-.535.394s-.2019.393-.2258.627c-.0219.24.0064.475.085.705.0804.236.2091.433.3859.593.1733.167.3708.28.5927.339.2182.066.4368.061.6558-.014l1.856-.634z"/>
        <path d="m72.6489 123.391-.0996-.528 4.0682-.767 1.1405 6.056-3.9915.752-.0995-.529 3.3944-.639-.4112-2.184-2.9595.558-.0948-.504 2.9595-.557-.4353-2.311z"/>
    </g>
</svg>