<svg viewBox="0 0 40 40" fill="none" xmlns="http://www.w3.org/2000/svg">
    <path d="M39.405 8.2283C38.0133 8.84497 36.5183 9.26163 34.9467 9.44997C36.5683 8.47962 37.7816 6.95241 38.36 5.1533C36.8364 6.05828 35.1689 6.69529 33.43 7.03663C32.2606 5.78807 30.7118 4.96051 29.0239 4.68242C27.336 4.40434 25.6035 4.69128 24.0954 5.49872C22.5873 6.30616 21.388 7.5889 20.6836 9.14781C19.9792 10.7067 19.8092 12.4546 20.2 14.12C17.1128 13.965 14.0927 13.1625 11.3357 11.7648C8.5787 10.3671 6.1464 8.40524 4.19667 6.00663C3.53 7.15663 3.14667 8.48997 3.14667 9.90997C3.14592 11.1883 3.46072 12.447 4.06313 13.5745C4.66554 14.702 5.53693 15.6634 6.6 16.3733C5.36713 16.3341 4.16145 16.0009 3.08333 15.4016V15.5016C3.08321 17.2945 3.70339 19.0323 4.83864 20.42C5.97389 21.8077 7.55428 22.7599 9.31166 23.115C8.16797 23.4245 6.96889 23.4701 5.805 23.2483C6.30083 24.791 7.26666 26.14 8.56728 27.1065C9.8679 28.073 11.4382 28.6086 13.0583 28.6383C10.3081 30.7973 6.91148 31.9685 3.415 31.9633C2.79563 31.9635 2.17679 31.9273 1.56167 31.855C5.11079 34.1369 9.24223 35.348 13.4617 35.3433C27.745 35.3433 35.5533 23.5133 35.5533 13.2533C35.5533 12.92 35.545 12.5833 35.53 12.25C37.0488 11.1516 38.3598 9.79146 39.4017 8.2333L39.405 8.2283Z"
          fill="currentColor"/>
</svg>
