<svg viewBox="0 0 40 40" fill="none" xmlns="http://www.w3.org/2000/svg">
    <path d="M29.578 14.3897C28.561 14.3906 27.5861 14.7953 26.867 15.5143C26.148 16.2333 25.7435 17.2081 25.7424 18.2251C25.7424 18.5536 26.0086 18.8198 26.3372 18.8198C26.6655 18.8198 26.932 18.5536 26.932 18.2251C26.9318 17.5233 27.2106 16.8501 27.707 16.3538C28.2032 15.8576 28.8763 15.5788 29.578 15.5786C30.2799 15.5786 30.953 15.8576 31.4492 16.3538C31.9456 16.8501 32.2244 17.5232 32.2244 18.2251C32.2244 18.9268 31.9454 19.6 31.4492 20.0963C30.953 20.5925 30.2797 20.8713 29.578 20.8713H15.4691C15.1407 20.8713 14.8745 21.1375 14.8745 21.4659C14.8745 21.7944 15.1407 22.0607 15.4691 22.0607H29.578C30.5961 22.0618 31.5729 21.6584 32.2931 20.939C33.0136 20.2195 33.4184 19.2432 33.4184 18.2251C33.4184 17.2071 33.0135 16.2308 32.2931 15.5113C31.5729 14.7919 30.5961 14.3883 29.578 14.3897Z"
          fill="currentColor"/>
    <path d="M22.9258 23.8105H7.56648C7.23792 23.8105 6.97168 24.0768 6.97168 24.4051C6.97168 24.7337 7.23792 24.9999 7.56648 24.9999H22.9258C23.2542 24.9999 23.5204 24.7337 23.5204 24.4051C23.5204 24.0768 23.2542 23.8105 22.9258 23.8105Z"
          fill="currentColor"/>
</svg>
